<?xml version="1.0" encoding="UTF-8"?>
<svg version="1.1" xmlns="http://www.w3.org/2000/svg" width="174" height="125">
<path d="M0 0 C57.42 0 114.84 0 174 0 C174 41.25 174 82.5 174 125 C116.58 125 59.16 125 0 125 C0 83.75 0 42.5 0 0 Z " fill="#3C3B39" transform="translate(0,0)"/>
<path d="M0 0 C1.90857028 -0.0064518 3.81713963 -0.01318177 5.72570801 -0.02017212 C9.67507224 -0.03199707 13.62434985 -0.03586702 17.57373047 -0.03466797 C22.62970413 -0.03446227 27.68513145 -0.06208505 32.74097443 -0.09621239 C36.65975516 -0.11841307 40.57840097 -0.12250809 44.49723816 -0.12144852 C46.36315343 -0.12380239 48.22907254 -0.13261385 50.09492493 -0.14811325 C52.68803493 -0.16769268 55.27991748 -0.16197421 57.87304688 -0.14990234 C59.01686577 -0.16676086 59.01686577 -0.16676086 60.18379211 -0.18395996 C63.82489502 -0.140851 65.9043804 0.21498493 69.00158691 2.19320679 C71.42564062 4.67584993 72.7448751 7.01141961 74.21875 10.1484375 C74.69570312 11.14488281 75.17265625 12.14132812 75.6640625 13.16796875 C78.41104422 19.25485993 80.82465884 25.27030499 82.78125 31.6484375 C83.00619141 32.36322266 83.23113281 33.07800781 83.46289062 33.81445312 C85.09375 39.07385068 85.09375 39.07385068 85.09375 41.3359375 C85.75375 41.3359375 86.41375 41.3359375 87.09375 41.3359375 C92.26368604 49.10547235 92.79347481 56.2995647 92.58081055 65.32275391 C92.53116834 67.46446057 92.51930289 69.60386155 92.51367188 71.74609375 C92.40612375 85.09174979 92.40612375 85.09174979 90.09375 91.3359375 C89.10375 91.9959375 88.11375 92.6559375 87.09375 93.3359375 C86.619375 94.3053125 86.145 95.2746875 85.65625 96.2734375 C84.0165499 99.4872497 83.14145869 100.53653706 80.09375 102.3359375 C77.45753479 102.71904755 77.45753479 102.71904755 74.40063477 102.73034668 C73.23976349 102.74169647 72.07889221 102.75304626 70.88284302 102.76473999 C68.97823807 102.76034409 68.97823807 102.76034409 67.03515625 102.75585938 C65.68146056 102.76320049 64.32777114 102.77178685 62.97409058 102.78152466 C59.30056687 102.80374259 55.62726744 102.80667132 51.95368576 102.80477715 C48.88694675 102.80465748 45.82025532 102.81321969 42.75352955 102.82155466 C35.51957336 102.84078887 28.28573257 102.84367215 21.05175781 102.83691406 C13.58754677 102.83026934 6.12382941 102.85315447 -1.34028149 102.89022779 C-7.74889318 102.92090424 -14.15734588 102.9322872 -20.56602955 102.92839098 C-24.3936888 102.92632171 -28.22096371 102.93182971 -32.04855347 102.95628357 C-35.64716714 102.97851546 -39.24497654 102.97670388 -42.8435936 102.95635605 C-44.79420512 102.95131014 -46.74483138 102.97098913 -48.69534302 102.99136353 C-50.43664993 102.97455032 -50.43664993 102.97455032 -52.21313477 102.95739746 C-53.72630028 102.95846622 -53.72630028 102.95846622 -55.27003479 102.95955658 C-58.88625715 102.10410849 -59.95323773 100.40786323 -61.90625 97.3359375 C-61.90625 96.6759375 -61.90625 96.0159375 -61.90625 95.3359375 C-62.56625 95.3359375 -63.22625 95.3359375 -63.90625 95.3359375 C-65.85081928 91.20175159 -66.27653021 87.5659405 -66.53125 83.0234375 C-66.60601562 81.76917969 -66.68078125 80.51492187 -66.7578125 79.22265625 C-66.80679688 78.27003906 -66.85578125 77.31742187 -66.90625 76.3359375 C-56.25541603 76.20374187 -45.60456256 76.07325028 -34.9536829 75.94478607 C-30.00516316 75.88504975 -25.05665124 75.82478099 -20.1081543 75.76318359 C0.95975115 75.50130112 22.02375538 75.24144733 43.09375 75.3359375 C43.09375 71.3759375 43.09375 67.4159375 43.09375 63.3359375 C21.97375 63.3359375 0.85375 63.3359375 -20.90625 63.3359375 C-20.90625 67.2959375 -20.90625 71.2559375 -20.90625 75.3359375 C-21.23625 75.3359375 -21.56625 75.3359375 -21.90625 75.3359375 C-21.90625 71.7059375 -21.90625 68.0759375 -21.90625 64.3359375 C-28.17625 64.0059375 -34.44625 63.6759375 -40.90625 63.3359375 C-40.57625 62.6759375 -40.24625 62.0159375 -39.90625 61.3359375 C-1.95625 60.6759375 35.99375 60.0159375 75.09375 59.3359375 C77.18211672 55.15920407 77.4633119 52.68382332 77.71875 48.0859375 C77.904375 44.7446875 77.904375 44.7446875 78.09375 41.3359375 C69.84375 41.3359375 61.59375 41.3359375 53.09375 41.3359375 C53.09375 40.6759375 53.09375 40.0159375 53.09375 39.3359375 C44.45210075 39.44416233 35.81052711 39.55693103 27.16901112 39.67527676 C23.15509767 39.73010937 19.14117664 39.78345914 15.12719727 39.83325195 C11.24325349 39.88148906 7.35938377 39.93384077 3.47553062 39.98887825 C2.00422737 40.00903687 0.53290404 40.02778827 -0.93843651 40.04501152 C-9.02726164 40.1406943 -17.05404134 40.43438875 -25.11723328 41.11778259 C-28.52878805 41.38463198 -31.87906971 41.44981039 -35.30078125 41.43359375 C-36.52216797 41.43037109 -37.74355469 41.42714844 -39.00195312 41.42382812 C-40.22849609 41.41544922 -41.45503906 41.40707031 -42.71875 41.3984375 C-43.99556641 41.39392578 -45.27238281 41.38941406 -46.58789062 41.38476562 C-49.69406211 41.37313202 -52.80012908 41.35678825 -55.90625 41.3359375 C-55.90625 43.6459375 -55.90625 45.9559375 -55.90625 48.3359375 C-56.23625 48.3359375 -56.56625 48.3359375 -56.90625 48.3359375 C-56.49471263 53.30687574 -56.11024168 57.78102136 -53.90625 62.3359375 C-56.54625 62.3359375 -59.18625 62.3359375 -61.90625 62.3359375 C-62.23625 66.6259375 -62.56625 70.9159375 -62.90625 75.3359375 C-63.89625 75.3359375 -64.88625 75.3359375 -65.90625 75.3359375 C-67.10834556 71.56746334 -67.039156 67.95667426 -67.03125 64.0234375 C-67.03382812 62.74855469 -67.03640625 61.47367188 -67.0390625 60.16015625 C-66.81975313 53.84533639 -66.17210072 48.82256671 -62.90625 43.3359375 C-61.91625 42.8409375 -61.91625 42.8409375 -60.90625 42.3359375 C-60.18369038 40.27148145 -59.47241337 38.20251374 -58.8125 36.1171875 C-55.58115995 26.20031632 -51.38507006 16.7399205 -46.90625 7.3359375 C-46.24625 7.3359375 -45.58625 7.3359375 -44.90625 7.3359375 C-44.90625 6.3459375 -44.90625 5.3559375 -44.90625 4.3359375 C-41.97907557 2.38448788 -41.06787245 2.03755069 -37.7545166 1.7149353 C-36.92473045 1.63272043 -36.09494431 1.55050556 -35.24001312 1.46579933 C-33.89627499 1.35003579 -33.89627499 1.35003579 -32.52539062 1.23193359 C-31.58934242 1.14785437 -30.65329422 1.06377514 -29.68888092 0.97714806 C-19.7928707 0.14895083 -9.92524146 0.00806752 0 0 Z " fill="#F6F5F5" transform="translate(80.90625,-0.3359375)"/>
<path d="M0 0 C2.3817538 0.0211501 4.76367056 0.02951674 7.14550781 0.02246094 C10.13899219 0.01386287 13.1285645 0.0468804 16.12158203 0.09521484 C17.35593994 0.0785376 17.35593994 0.0785376 18.61523438 0.06152344 C21.66919447 0.15487015 23.99446716 0.37461119 26.26025391 2.53686523 C32.2261963 10.65634116 35.80550777 21.00777136 35.68408203 31.03271484 C25.2094664 31.14858972 14.73500335 31.23742062 4.2598772 31.2917757 C-0.60424127 31.31786425 -5.46792109 31.35324868 -10.33178711 31.40991211 C-15.02616496 31.46425847 -19.72012103 31.49414097 -24.4147892 31.50710106 C-26.20539299 31.51633625 -27.99597382 31.53437077 -29.78639793 31.56136513 C-32.29568645 31.59769155 -34.80323478 31.60265888 -37.31274414 31.6003418 C-38.05217758 31.61831818 -38.79161102 31.63629456 -39.55345154 31.65481567 C-43.52040499 31.61520881 -45.09810546 31.22242297 -48.13423157 28.57804871 C-48.85418808 27.73808853 -49.57414459 26.89812836 -50.31591797 26.03271484 C-57.22459337 22.96322282 -66.38032594 22.54421518 -73.50341797 25.28271484 C-76.44684173 26.70161664 -76.44684173 26.70161664 -77.01513672 29.09521484 C-77.65902344 30.05427734 -77.65902344 30.05427734 -78.31591797 31.03271484 C-80.98074638 31.49980836 -83.26662763 31.72843958 -85.94091797 31.78271484 C-86.64732422 31.81236328 -87.35373047 31.84201172 -88.08154297 31.87255859 C-89.82571844 31.94326841 -91.57082624 31.99025519 -93.31591797 32.03271484 C-94.63654439 28.07083557 -93.48170157 25.41694183 -92.25341797 21.59521484 C-92.06070313 20.94617188 -91.86798828 20.29712891 -91.66943359 19.62841797 C-89.61026117 13.08566521 -86.47478051 7.10362389 -83.31591797 1.03271484 C-25.27661808 -0.26806145 -25.27661808 -0.26806145 0 0 Z " fill="#FCFCFC" transform="translate(121.31591796875,6.96728515625)"/>
<path d="M0 0 C1.90857028 -0.0064518 3.81713963 -0.01318177 5.72570801 -0.02017212 C9.67507224 -0.03199707 13.62434985 -0.03586702 17.57373047 -0.03466797 C22.62970413 -0.03446227 27.68513145 -0.06208505 32.74097443 -0.09621239 C36.65975516 -0.11841307 40.57840097 -0.12250809 44.49723816 -0.12144852 C46.36315343 -0.12380239 48.22907254 -0.13261385 50.09492493 -0.14811325 C52.68803493 -0.16769268 55.27991748 -0.16197421 57.87304688 -0.14990234 C59.01686577 -0.16676086 59.01686577 -0.16676086 60.18379211 -0.18395996 C63.82489502 -0.140851 65.9043804 0.21498493 69.00158691 2.19320679 C71.42564062 4.67584993 72.7448751 7.01141961 74.21875 10.1484375 C74.69570312 11.14488281 75.17265625 12.14132812 75.6640625 13.16796875 C78.41104422 19.25485993 80.82465884 25.27030499 82.78125 31.6484375 C83.00619141 32.36322266 83.23113281 33.07800781 83.46289062 33.81445312 C85.09375 39.07385068 85.09375 39.07385068 85.09375 41.3359375 C85.75375 41.3359375 86.41375 41.3359375 87.09375 41.3359375 C92.26368604 49.10547235 92.79347481 56.2995647 92.58081055 65.32275391 C92.53116834 67.46446057 92.51930289 69.60386155 92.51367188 71.74609375 C92.4566293 78.53268277 92.19251395 84.84578393 90.09375 91.3359375 C89.76375 91.3359375 89.43375 91.3359375 89.09375 91.3359375 C89.09375 86.7159375 89.09375 82.0959375 89.09375 77.3359375 C53.94875 76.8409375 53.94875 76.8409375 18.09375 76.3359375 C18.09375 76.0059375 18.09375 75.6759375 18.09375 75.3359375 C26.34375 75.3359375 34.59375 75.3359375 43.09375 75.3359375 C43.09375 71.3759375 43.09375 67.4159375 43.09375 63.3359375 C21.97375 63.3359375 0.85375 63.3359375 -20.90625 63.3359375 C-20.90625 67.2959375 -20.90625 71.2559375 -20.90625 75.3359375 C-21.23625 75.3359375 -21.56625 75.3359375 -21.90625 75.3359375 C-21.90625 71.7059375 -21.90625 68.0759375 -21.90625 64.3359375 C-28.17625 64.0059375 -34.44625 63.6759375 -40.90625 63.3359375 C-40.57625 62.6759375 -40.24625 62.0159375 -39.90625 61.3359375 C-1.95625 60.6759375 35.99375 60.0159375 75.09375 59.3359375 C77.18211672 55.15920407 77.4633119 52.68382332 77.71875 48.0859375 C77.904375 44.7446875 77.904375 44.7446875 78.09375 41.3359375 C69.84375 41.3359375 61.59375 41.3359375 53.09375 41.3359375 C53.09375 40.6759375 53.09375 40.0159375 53.09375 39.3359375 C44.45210075 39.44416233 35.81052711 39.55693103 27.16901112 39.67527676 C23.15509767 39.73010937 19.14117664 39.78345914 15.12719727 39.83325195 C11.24325349 39.88148906 7.35938377 39.93384077 3.47553062 39.98887825 C2.00422737 40.00903687 0.53290404 40.02778827 -0.93843651 40.04501152 C-9.02726164 40.1406943 -17.05404134 40.43438875 -25.11723328 41.11778259 C-28.52878805 41.38463198 -31.87906971 41.44981039 -35.30078125 41.43359375 C-36.52216797 41.43037109 -37.74355469 41.42714844 -39.00195312 41.42382812 C-40.22849609 41.41544922 -41.45503906 41.40707031 -42.71875 41.3984375 C-43.99556641 41.39392578 -45.27238281 41.38941406 -46.58789062 41.38476562 C-49.69406211 41.37313202 -52.80012908 41.35678825 -55.90625 41.3359375 C-55.90625 43.6459375 -55.90625 45.9559375 -55.90625 48.3359375 C-56.23625 48.3359375 -56.56625 48.3359375 -56.90625 48.3359375 C-56.49471263 53.30687574 -56.11024168 57.78102136 -53.90625 62.3359375 C-56.54625 62.3359375 -59.18625 62.3359375 -61.90625 62.3359375 C-62.23625 66.6259375 -62.56625 70.9159375 -62.90625 75.3359375 C-63.89625 75.3359375 -64.88625 75.3359375 -65.90625 75.3359375 C-67.10834556 71.56746334 -67.039156 67.95667426 -67.03125 64.0234375 C-67.03382812 62.74855469 -67.03640625 61.47367188 -67.0390625 60.16015625 C-66.81975313 53.84533639 -66.17210072 48.82256671 -62.90625 43.3359375 C-61.91625 42.8409375 -61.91625 42.8409375 -60.90625 42.3359375 C-60.18369038 40.27148145 -59.47241337 38.20251374 -58.8125 36.1171875 C-55.58115995 26.20031632 -51.38507006 16.7399205 -46.90625 7.3359375 C-46.24625 7.3359375 -45.58625 7.3359375 -44.90625 7.3359375 C-44.90625 6.3459375 -44.90625 5.3559375 -44.90625 4.3359375 C-41.97907557 2.38448788 -41.06787245 2.03755069 -37.7545166 1.7149353 C-36.92473045 1.63272043 -36.09494431 1.55050556 -35.24001312 1.46579933 C-33.89627499 1.35003579 -33.89627499 1.35003579 -32.52539062 1.23193359 C-31.58934242 1.14785437 -30.65329422 1.06377514 -29.68888092 0.97714806 C-19.7928707 0.14895083 -9.92524146 0.00806752 0 0 Z M-42.90625 8.3359375 C-44.20431304 11.00952041 -45.49321167 13.68692134 -46.77734375 16.3671875 C-47.32376526 17.48915527 -47.32376526 17.48915527 -47.88122559 18.63378906 C-50.90928528 24.98255777 -53.0737779 31.30096199 -53.90625 38.3359375 C-52.75201985 39.72447444 -52.75201985 39.72447444 -49.59765625 39.35546875 C-48.22105475 39.29271388 -46.84474078 39.22339914 -45.46875 39.1484375 C-44.77458984 39.12974609 -44.08042969 39.11105469 -43.36523438 39.09179688 C-41.0960213 39.01031406 -41.0960213 39.01031406 -37.90625 38.3359375 C-36.53375553 36.46128391 -36.53375553 36.46128391 -35.90625 34.3359375 C-29.68267543 30.4634911 -23.06060354 30.66831813 -15.90625 31.3359375 C-12.25184398 32.20995488 -9.63817952 33.43493245 -7.21575928 36.41693115 C-3.9783709 39.10692634 -1.03634586 38.86784004 2.98339844 38.79003906 C4.16933342 38.79091522 4.16933342 38.79091522 5.37922668 38.79180908 C7.98764233 38.78902649 10.59490947 38.75792733 13.203125 38.7265625 C15.01344173 38.71910071 16.82376654 38.71340748 18.63409424 38.70941162 C23.39526735 38.69415038 28.15595116 38.65486441 32.91693115 38.6105957 C37.77658469 38.56965353 42.6363174 38.55140286 47.49609375 38.53125 C57.02886063 38.48837059 66.5612646 38.42011335 76.09375 38.3359375 C75.94778307 36.72902014 75.79765183 35.12248067 75.64575195 33.51611328 C75.56259232 32.62143341 75.47943268 31.72675354 75.39375305 30.80496216 C75.05891013 28.04920545 74.39280198 25.75289302 73.28125 23.2109375 C72.92675781 22.39367188 72.57226562 21.57640625 72.20703125 20.734375 C71.65595703 19.54714844 71.65595703 19.54714844 71.09375 18.3359375 C70.55814453 17.17964844 70.55814453 17.17964844 70.01171875 16 C68.60992735 13.09141409 67.39198252 10.63417002 65.09375 8.3359375 C62.27206546 8.00434264 59.55242021 7.81377448 56.71875 7.7109375 C55.79723145 7.67371582 54.87571289 7.63649414 53.92626953 7.59814453 C21.67685586 6.47250149 -10.6610632 7.61325865 -42.90625 8.3359375 Z " fill="#EBEAE8" transform="translate(80.90625,-0.3359375)"/>
<path d="M0 0 C1.50599622 0.00187068 3.01199306 0.0032915 4.51799011 0.00428772 C8.4354528 0.00806181 12.35287698 0.0178469 16.27032471 0.0289917 C20.28633097 0.0393172 24.3023436 0.04380893 28.31835938 0.04882812 C36.16407984 0.05947506 44.00976885 0.07648811 51.85546875 0.09765625 C51.85546875 0.75765625 51.85546875 1.41765625 51.85546875 2.09765625 C60.10546875 2.09765625 68.35546875 2.09765625 76.85546875 2.09765625 C77.26571427 16.72974633 77.26571427 16.72974633 73.85546875 21.09765625 C71.48730183 21.71289539 71.48730183 21.71289539 68.6353302 21.69892883 C67.55419449 21.70580215 66.47305878 21.71267548 65.35916138 21.71975708 C64.17305267 21.7017807 62.98694397 21.68380432 61.76489258 21.6652832 C60.51599747 21.66601334 59.26710236 21.66674347 57.98036194 21.66749573 C54.5544398 21.66460643 51.13001934 21.63951365 47.70436311 21.60462594 C44.12494969 21.57339441 40.54551681 21.57043427 36.96598816 21.5644989 C30.18727859 21.54895088 23.40897164 21.50790996 16.63043946 21.45775145 C8.91352407 21.40188738 1.19658957 21.37437897 -6.52047765 21.34927428 C-22.39539546 21.29699453 -38.26991146 21.20903422 -54.14453125 21.09765625 C-56.60615159 16.46969644 -57.49339657 13.49392336 -57.33203125 8.22265625 C-57.29142578 6.49402344 -57.29142578 6.49402344 -57.25 4.73046875 C-57.21519531 3.86164062 -57.18039063 2.9928125 -57.14453125 2.09765625 C-55.97434448 2.06007202 -55.97434448 2.06007202 -54.78051758 2.02172852 C-51.1725858 1.90415681 -47.56481522 1.7821762 -43.95703125 1.66015625 C-42.73048828 1.62083984 -41.50394531 1.58152344 -40.24023438 1.54101562 C-38.4081543 1.47817383 -38.4081543 1.47817383 -36.5390625 1.4140625 C-35.43409424 1.37740479 -34.32912598 1.34074707 -33.19067383 1.30297852 C-29.84710495 1.16368486 -26.52511971 0.87309173 -23.19140625 0.58398438 C-15.45985584 -0.02349138 -7.74872348 -0.0287413 0 0 Z " fill="#FCFCFC" transform="translate(82.14453125,38.90234375)"/>
<path d="M0 0 C12.54 0 25.08 0 38 0 C36.02 2.64 34.04 5.28 32 8 C30.5076865 10.89700005 29.14689096 13.70274821 27.875 16.6875 C27.36525635 17.85454468 27.36525635 17.85454468 26.84521484 19.04516602 C24.3977778 24.76427298 22.43002122 30.49202515 20.7890625 36.49609375 C20 39 20 39 18 42 C17.34 42 16.68 42 16 42 C15.690625 42.94875 15.38125 43.8975 15.0625 44.875 C14 48 14 48 13 50 C12.84826424 51.47513862 12.75099697 52.95611062 12.68359375 54.4375 C12.64169922 55.33339844 12.59980469 56.22929688 12.55664062 57.15234375 C12.51732422 58.09207031 12.47800781 59.03179687 12.4375 60 C12.39431641 60.90878906 12.35113281 61.81757812 12.30664062 62.75390625 C11.59263471 74.51815183 11.59263471 74.51815183 12.75 86.1875 C12.95882813 87.32251953 12.95882813 87.32251953 13.171875 88.48046875 C13.93367062 91.20120145 13.93367062 91.20120145 16.03125 93.9296875 C19.27511024 99.38949685 18.67887805 105.77252007 18.75 111.9375 C18.77964844 113.19369141 18.80929688 114.44988281 18.83984375 115.74414062 C18.91022274 118.82908622 18.95741264 121.9145456 19 125 C12.73 125 6.46 125 0 125 C0 83.75 0 42.5 0 0 Z " fill="#FDFDFD" transform="translate(0,0)"/>
<path d="M0 0 C34.32 0 68.64 0 104 0 C104 6.93 104 13.86 104 21 C69.35 21 34.7 21 -1 21 C-0.67 14.07 -0.34 7.14 0 0 Z " fill="#FBFBFB" transform="translate(41,104)"/>
<path d="M0 0 C1.54010742 0.03383789 1.54010742 0.03383789 3.11132812 0.06835938 C5.6382179 0.12712425 8.16210255 0.20922151 10.6875 0.3125 C10.6875 0.6425 10.6875 0.9725 10.6875 1.3125 C10.06705811 1.36784912 9.44661621 1.42319824 8.80737305 1.48022461 C5.99623363 1.73310348 3.18562678 1.99148834 0.375 2.25 C-1.08969727 2.38051758 -1.08969727 2.38051758 -2.58398438 2.51367188 C-3.99067383 2.64418945 -3.99067383 2.64418945 -5.42578125 2.77734375 C-6.28985596 2.855896 -7.15393066 2.93444824 -8.04418945 3.01538086 C-10.47336712 3.26037977 -10.47336712 3.26037977 -13.3125 4.3125 C-13.3125 5.3025 -13.3125 6.2925 -13.3125 7.3125 C-13.9725 7.3125 -14.6325 7.3125 -15.3125 7.3125 C-15.41949219 7.85132813 -15.52648437 8.39015625 -15.63671875 8.9453125 C-16.47669035 11.88764077 -17.77289899 14.4422215 -19.125 17.1875 C-21.90438211 23.07872619 -23.77094452 28.90959417 -25.35546875 35.21875 C-26.31368391 38.31632716 -27.4165908 40.68664126 -29.3125 43.3125 C-29.9725 43.3125 -30.6325 43.3125 -31.3125 43.3125 C-31.456875 44.116875 -31.60125 44.92125 -31.75 45.75 C-32.3125 48.3125 -32.3125 48.3125 -33.3125 49.3125 C-34.38800642 54.97583103 -34.43184764 60.49964219 -34.375 66.25 C-34.37048828 67.12462891 -34.36597656 67.99925781 -34.36132812 68.90039062 C-34.34964834 71.03779047 -34.33171689 73.17515463 -34.3125 75.3125 C-33.3225 75.3125 -32.3325 75.3125 -31.3125 75.3125 C-31.32410156 74.54164062 -31.33570313 73.77078125 -31.34765625 72.9765625 C-31.36119141 71.47222656 -31.36119141 71.47222656 -31.375 69.9375 C-31.38660156 68.93976563 -31.39820313 67.94203125 -31.41015625 66.9140625 C-31.3125 64.3125 -31.3125 64.3125 -30.3125 62.3125 C-27.6725 62.3125 -25.0325 62.3125 -22.3125 62.3125 C-22.9725 61.260625 -23.6325 60.20875 -24.3125 59.125 C-27.22946794 53.42458731 -26.65512045 47.55580593 -26.3125 41.3125 C-25.9825 41.3125 -25.6525 41.3125 -25.3125 41.3125 C-25.19132812 42.21613281 -25.07015625 43.11976562 -24.9453125 44.05078125 C-24.69394531 45.82001953 -24.69394531 45.82001953 -24.4375 47.625 C-24.27507813 48.79675781 -24.11265625 49.96851563 -23.9453125 51.17578125 C-23.48949379 54.45780895 -23.48949379 54.45780895 -21.3125 57.3125 C-21.3125 58.3025 -21.3125 59.2925 -21.3125 60.3125 C4.4275 60.3125 30.1675 60.3125 56.6875 60.3125 C56.6875 60.6425 56.6875 60.9725 56.6875 61.3125 C35.2375 61.6425 13.7875 61.9725 -8.3125 62.3125 C1.18132463 63.01030464 1.18132463 63.01030464 10.6875 63.3125 C32.02083333 63.3125 53.35416667 63.3125 74.6875 63.3125 C74.6875 67.2725 74.6875 71.2325 74.6875 75.3125 C52.65106391 76.52995991 30.62965596 76.43239533 8.56811523 76.38116455 C3.60596144 76.37077099 -1.35619774 76.36633326 -6.31835938 76.36132812 C-15.98308671 76.35073519 -25.64779064 76.33376231 -35.3125 76.3125 C-35.00176976 78.54191405 -34.68884375 80.77102212 -34.375 83 C-34.11396484 84.86205078 -34.11396484 84.86205078 -33.84765625 86.76171875 C-33.41427103 89.63724548 -32.91600718 92.46894813 -32.3125 95.3125 C-31.6525 95.3125 -30.9925 95.3125 -30.3125 95.3125 C-29.211327 98.61601899 -29.28140169 100.82637172 -29.43359375 104.29296875 C-29.48193359 105.45634766 -29.53027344 106.61972656 -29.58007812 107.81835938 C-29.63615234 109.03330078 -29.69222656 110.24824219 -29.75 111.5 C-29.80220703 112.72654297 -29.85441406 113.95308594 -29.90820312 115.21679688 C-30.03798401 118.24895018 -30.17295431 121.28078294 -30.3125 124.3125 C-30.6425 124.3125 -30.9725 124.3125 -31.3125 124.3125 C-31.31660889 123.57725098 -31.32071777 122.84200195 -31.32495117 122.08447266 C-31.35817093 118.70137271 -31.42884695 115.32000646 -31.5 111.9375 C-31.50580078 110.78121094 -31.51160156 109.62492187 -31.51757812 108.43359375 C-31.69616932 101.40900673 -32.70543712 96.54371643 -36.17456055 90.42626953 C-37.61884657 87.74344859 -38.0063961 85.4684885 -38.125 82.4375 C-38.19267578 80.9215625 -38.19267578 80.9215625 -38.26171875 79.375 C-38.27847656 78.364375 -38.29523437 77.35375 -38.3125 76.3125 C-38.33957031 75.343125 -38.36664063 74.37375 -38.39453125 73.375 C-38.43880157 70.34852003 -38.39508585 67.33814538 -38.3125 64.3125 C-38.28414062 63.12914062 -38.25578125 61.94578125 -38.2265625 60.7265625 C-37.90514931 53.54833449 -37.11645622 48.44791326 -33.3125 42.3125 C-32.6525 42.3125 -31.9925 42.3125 -31.3125 42.3125 C-30.69375 40.45625 -30.69375 40.45625 -30.0625 38.5625 C-29.78277344 37.73363281 -29.50304688 36.90476563 -29.21484375 36.05078125 C-28.61938123 34.2437716 -28.04843984 32.4284725 -27.50390625 30.60546875 C-25.6052748 24.43702612 -23.20881308 18.6610601 -20.375 12.875 C-20.05120361 12.20073975 -19.72740723 11.52647949 -19.39379883 10.83178711 C-14.61066923 1.33557126 -10.43742895 -0.43405815 0 0 Z " fill="#5F5E5D" transform="translate(49.3125,-0.3125)"/>
<path d="M0 0 C3.5622231 -0.11654436 7.12395342 -0.1873639 10.6875 -0.25 C12.19860352 -0.30027344 12.19860352 -0.30027344 13.74023438 -0.3515625 C21.18018874 -0.44977972 21.18018874 -0.44977972 25.01171875 1.65234375 C27.21878133 4.25832531 28.67276188 6.72153416 30.125 9.8125 C30.60195312 10.80894531 31.07890625 11.80539062 31.5703125 12.83203125 C34.31729422 18.91892243 36.73090884 24.93436749 38.6875 31.3125 C38.91244141 32.02728516 39.13738281 32.74207031 39.36914062 33.47851562 C41 38.73791318 41 38.73791318 41 41 C41.66 41 42.32 41 43 41 C48.16993604 48.76953485 48.69972481 55.9636272 48.48706055 64.98681641 C48.43741834 67.12852307 48.42555289 69.26792405 48.41992188 71.41015625 C48.3628793 78.19674527 48.09876395 84.50984643 46 91 C45.67 91 45.34 91 45 91 C45 86.38 45 81.76 45 77 C9.855 76.505 9.855 76.505 -26 76 C-26 75.67 -26 75.34 -26 75 C-17.75 75 -9.5 75 -1 75 C-1 71.04 -1 67.08 -1 63 C-22.12 63 -43.24 63 -65 63 C-65 66.96 -65 70.92 -65 75 C-65.33 75 -65.66 75 -66 75 C-66 71.37 -66 67.74 -66 64 C-72.27 63.67 -78.54 63.34 -85 63 C-84.67 62.34 -84.34 61.68 -84 61 C-46.05 60.34 -8.1 59.68 31 59 C33.56166801 53.87666398 34.3917962 51.94766833 34.6875 46.625 C34.75324219 45.56539062 34.81898438 44.50578125 34.88671875 43.4140625 C34.92410156 42.61742187 34.96148437 41.82078125 35 41 C35.66 41 36.32 41 37 41 C37.49793456 49.17442575 36.87262117 54.73883531 33 62 C35.97 62.66 38.94 63.32 42 64 C42 67.3 42 70.6 42 74 C42.99 74 43.98 74 45 74 C45.95940247 57.92988208 45.95940247 57.92988208 40.46484375 43.4609375 C37.42842186 38.35974873 35.70788971 32.5794922 33.71777344 27.00634766 C31.71562226 21.40985842 29.63519415 15.96401316 27 10.625 C26.505 9.60664063 26.01 8.58828125 25.5 7.5390625 C24.10330367 4.75525472 24.10330367 4.75525472 21 3 C18.68354662 2.5438175 18.68354662 2.5438175 16.11328125 2.3671875 C15.17548828 2.28339844 14.23769531 2.19960938 13.27148438 2.11328125 C12.29501953 2.03464844 11.31855469 1.95601563 10.3125 1.875 C9.32443359 1.78863281 8.33636719 1.70226562 7.31835938 1.61328125 C4.87945685 1.40120277 2.44015212 1.19708799 0 1 C0 0.67 0 0.34 0 0 Z " fill="#585756" transform="translate(125,0)"/>
<path d="M0 0 C8.91 0 17.82 0 27 0 C27 41.25 27 82.5 27 125 C24.69 125 22.38 125 20 125 C19.88257501 120.70856843 19.81234004 116.41755727 19.75 112.125 C19.71648437 110.92101562 19.68296875 109.71703125 19.6484375 108.4765625 C19.57438522 101.66375286 20.06324651 96.35685159 23.03613281 90.17919922 C25.91470974 83.67104885 25.25698 76.36751096 25.29516602 69.39038086 C25.30668052 67.92706631 25.32712441 66.46379359 25.35668945 65.00073242 C25.52289501 56.76009363 25.56924185 50.18281214 21 43 C21 42.34 21 41.68 21 41 C20.34 41 19.68 41 19 41 C18.78907715 40.32533691 18.5781543 39.65067383 18.36083984 38.95556641 C17.37878883 35.84103132 16.37704381 32.73315771 15.375 29.625 C15.04371094 28.56410156 14.71242187 27.50320312 14.37109375 26.41015625 C12.05442608 19.28531038 9.07640039 13.26748274 5 7 C4.48614746 6.1229541 3.97229492 5.2459082 3.44287109 4.34228516 C2.07696829 1.92284872 2.07696829 1.92284872 0 0 Z " fill="#FBFBFB" transform="translate(147,0)"/>
<path d="M0 0 C1.18934898 -0.0049926 1.18934898 -0.0049926 2.40272522 -0.01008606 C4.08317483 -0.01515851 5.76363454 -0.01749429 7.4440918 -0.01733398 C10.02083884 -0.01951911 12.59715701 -0.03766734 15.17382812 -0.05664062 C16.80338395 -0.0595747 18.43294181 -0.0615594 20.0625 -0.0625 C21.22349464 -0.07327827 21.22349464 -0.07327827 22.40794373 -0.08427429 C27.86883372 -0.06085378 27.86883372 -0.06085378 30.09765625 2.16796875 C30.09765625 3.48796875 30.09765625 4.80796875 30.09765625 6.16796875 C44.94765625 6.49796875 59.79765625 6.82796875 75.09765625 7.16796875 C75.09765625 8.15796875 75.09765625 9.14796875 75.09765625 10.16796875 C60.24765625 10.16796875 45.39765625 10.16796875 30.09765625 10.16796875 C29.76765625 12.14796875 29.43765625 14.12796875 29.09765625 16.16796875 C23.84660183 16.19261803 18.5955808 16.21080443 13.34448242 16.22290039 C11.55671604 16.22794093 9.7689538 16.23477329 7.98120117 16.2434082 C5.41714457 16.25548605 2.85314228 16.26119969 0.2890625 16.265625 C-0.91719032 16.27336693 -0.91719032 16.27336693 -2.14781189 16.28126526 C-4.0663609 16.2814609 -5.98479743 16.22998858 -7.90234375 16.16796875 C-8.39734375 15.67296875 -8.39734375 15.67296875 -8.90234375 15.16796875 C-8.90234375 13.51796875 -8.90234375 11.86796875 -8.90234375 10.16796875 C-22.76234375 10.16796875 -36.62234375 10.16796875 -50.90234375 10.16796875 C-51.23234375 9.17796875 -51.56234375 8.18796875 -51.90234375 7.16796875 C-37.71234375 7.16796875 -23.52234375 7.16796875 -8.90234375 7.16796875 C-8.90234375 5.18796875 -8.90234375 3.20796875 -8.90234375 1.16796875 C-6.88259642 -0.85177858 -2.77149858 0.00397436 0 0 Z " fill="#494949" transform="translate(81.90234375,80.83203125)"/>
<path d="M0 0 C0.85258896 -0.00189835 1.70517792 -0.00379669 2.58360291 -0.00575256 C5.40332225 -0.00945782 8.22278397 0.00124589 11.04248047 0.01245117 C13.00820892 0.01364393 14.97393795 0.01409593 16.93966675 0.01383972 C21.06381795 0.01540451 25.18788236 0.02368975 29.31201172 0.03710938 C34.57740703 0.05403209 39.84270637 0.0579255 45.10812569 0.05716419 C49.17124332 0.05743739 53.2343403 0.06294356 57.29745102 0.07016563 C59.23736286 0.07333134 61.17727703 0.07531476 63.11719131 0.07605934 C65.8424901 0.07824916 68.56769128 0.08705132 71.29296875 0.09765625 C72.08294754 0.09720306 72.87292633 0.09674988 73.68684387 0.09628296 C88.93069642 0.18218753 88.93069642 0.18218753 92.96826172 2.85229492 C94.9722215 5.91070735 96.33510083 9.08119656 97.59716797 12.49291992 C97.98122803 13.49935547 97.98122803 13.49935547 98.37304688 14.52612305 C99.09828774 16.42993803 99.81668917 18.33635436 100.53466797 20.24291992 C100.88142578 21.07307617 101.22818359 21.90323242 101.58544922 22.75854492 C103.39037949 27.10406424 103.63467158 30.57608471 103.53466797 35.24291992 C102.38589676 35.24069931 101.23712555 35.2384787 100.05354309 35.2361908 C89.182363 35.21584407 78.31118682 35.2008925 67.43999195 35.19110775 C61.85215773 35.18590808 56.26433899 35.17886389 50.67651367 35.16748047 C45.27540118 35.15654734 39.87430349 35.15062116 34.47318077 35.14804268 C32.42130996 35.14620711 30.36943989 35.14262302 28.31757545 35.13718987 C18.5466146 35.11236619 8.86358947 35.12954046 -0.87626648 36.01707458 C-4.2209957 36.3088368 -7.50266751 36.35648705 -10.85986328 36.34057617 C-12.08125 36.33735352 -13.30263672 36.33413086 -14.56103516 36.33081055 C-15.78757812 36.32243164 -17.01412109 36.31405273 -18.27783203 36.30541992 C-19.55464844 36.3009082 -20.83146484 36.29639648 -22.14697266 36.29174805 C-25.25314414 36.28011445 -28.35921111 36.26377068 -31.46533203 36.24291992 C-30.76629527 24.01117472 -27.22230695 11.98886276 -19.46533203 2.24291992 C-16.65283203 1.74291992 -16.65283203 1.74291992 -14.46533203 2.24291992 C-15.78533203 2.57291992 -17.10533203 2.90291992 -18.46533203 3.24291992 C-18.57103516 3.78045898 -18.67673828 4.31799805 -18.78564453 4.87182617 C-19.63699714 7.84177465 -20.96546986 10.41359531 -22.34033203 13.18041992 C-25.45057661 19.77473655 -27.05291952 26.10239 -28.46533203 33.24291992 C-23.51533203 33.24291992 -18.56533203 33.24291992 -13.46533203 33.24291992 C-12.80533203 31.59291992 -12.14533203 29.94291992 -11.46533203 28.24291992 C-5.33122404 24.2898281 1.43369387 24.58028173 8.53466797 25.24291992 C12.14405303 26.10616973 14.80411016 27.22373933 17.03076172 30.33007812 C21.129149 33.46101263 25.52923513 32.71195592 30.53466797 32.59838867 C31.63124222 32.58999466 32.72781647 32.58160065 33.85762024 32.57295227 C37.41704827 32.54285641 40.97556048 32.48629073 44.53466797 32.43041992 C49.36143204 32.38374498 54.18826683 32.35080969 59.01513672 32.31713867 C60.19480515 32.30701752 61.37447357 32.29689636 62.58988953 32.28646851 C75.25757797 32.1901937 87.88407576 32.57136512 100.53466797 33.24291992 C98.85288404 24.15775078 96.35920615 11.0674581 89.53466797 4.24291992 C86.8777014 3.99826555 84.24968839 3.83422337 81.58544922 3.71557617 C80.68296951 3.67425064 79.78048981 3.63292511 78.85066223 3.59034729 C62.42759292 2.92153451 45.97818582 2.88412032 29.54418945 2.71069336 C24.79684314 2.65976586 20.04954786 2.60445817 15.30224609 2.54956055 C6.04643066 2.44315142 -3.20942975 2.3414643 -12.46533203 2.24291992 C-8.58294526 -0.35644028 -4.48999369 -0.03145592 0 0 Z " fill="#3B3A39" transform="translate(56.46533203125,4.757080078125)"/>
<path d="M0 0 C20.79 0 41.58 0 63 0 C63 3.96 63 7.92 63 12 C42.21 12 21.42 12 0 12 C0 8.04 0 4.08 0 0 Z " fill="#FAF9F9" transform="translate(61,63)"/>
<path d="M0 0 C0 0.33 0 0.66 0 1 C-3.3 1.33 -6.6 1.66 -10 2 C20.195 2.495 20.195 2.495 51 3 C51 3.33 51 3.66 51 4 C30.21 4.33 9.42 4.66 -12 5 C8.295 5.495 8.295 5.495 29 6 C29 6.33 29 6.66 29 7 C11.84 7 -5.32 7 -23 7 C-30.29698916 21.59397832 -33.69508234 31.23796831 -35 47 C-35.33 47 -35.66 47 -36 47 C-35.58846263 51.97093824 -35.20399168 56.44508386 -33 61 C-35.64 61 -38.28 61 -41 61 C-41.33 65.29 -41.66 69.58 -42 74 C-42.99 74 -43.98 74 -45 74 C-46.20209556 70.23152584 -46.132906 66.62073676 -46.125 62.6875 C-46.12757812 61.41261719 -46.13015625 60.13773438 -46.1328125 58.82421875 C-45.91350313 52.50939889 -45.26585072 47.48662921 -42 42 C-41.01 41.505 -41.01 41.505 -40 41 C-39.27744038 38.93554395 -38.56616337 36.86657624 -37.90625 34.78125 C-34.67490995 24.86437882 -30.47882006 15.403983 -26 6 C-25.34 6 -24.68 6 -24 6 C-24 5.01 -24 4.02 -24 3 C-17.3625872 -1.42494186 -7.72263079 -0.11760351 0 0 Z " fill="#C5C4C3" transform="translate(60,1)"/>
<path d="M0 0 C1.39120471 0.00015906 2.78241534 0.00585033 4.17358398 0.01586914 C4.90463852 0.01728409 5.63569305 0.01869904 6.38890076 0.02015686 C8.73253406 0.02577131 11.07607313 0.03832617 13.41967773 0.05102539 C15.00496282 0.05603853 16.59024939 0.06060176 18.17553711 0.06469727 C22.06945383 0.07574542 25.96329979 0.09301967 29.85717773 0.11352539 C29.85717773 4.07352539 29.85717773 8.03352539 29.85717773 12.11352539 C18.63717773 12.11352539 7.41717773 12.11352539 -4.14282227 12.11352539 C-4.14282227 0.14964751 -4.14282227 0.14964751 0 0 Z " fill="#FAFAFA" transform="translate(79.142822265625,82.886474609375)"/>
<path d="M0 0 C1.01794647 -0.00143509 1.01794647 -0.00143509 2.05645752 -0.00289917 C3.48181247 -0.00357648 4.90717059 -0.00175364 6.33251953 0.00244141 C8.52253028 0.00782949 10.71233905 0.00246432 12.90234375 -0.00390625 C14.28906295 -0.00324604 15.67578203 -0.00196607 17.0625 0 C18.32416992 0.00112793 19.58583984 0.00225586 20.88574219 0.00341797 C23.765625 0.1328125 23.765625 0.1328125 24.765625 1.1328125 C24.765625 4.4328125 24.765625 7.7328125 24.765625 11.1328125 C12.555625 11.1328125 0.345625 11.1328125 -12.234375 11.1328125 C-12.234375 7.8328125 -12.234375 4.5328125 -12.234375 1.1328125 C-8.10829466 0.14212034 -4.23725344 0.0037746 0 0 Z " fill="#FAFAFA" transform="translate(33.234375,63.8671875)"/>
<path d="M0 0 C1.56047445 0.00015913 3.12095416 0.00585397 4.68139648 0.01586914 C5.91115456 0.01799156 5.91115456 0.01799156 7.16575623 0.02015686 C9.79470406 0.0257725 12.42356797 0.0383276 15.05249023 0.05102539 C16.8304838 0.05603838 18.60847869 0.06060163 20.38647461 0.06469727 C24.75434569 0.07574701 29.12215371 0.09302208 33.48999023 0.11352539 C33.48999023 3.41352539 33.48999023 6.71352539 33.48999023 10.11352539 C21.27999023 10.44352539 9.06999023 10.77352539 -3.51000977 11.11352539 C-5.13652498 7.86049495 -4.62454132 4.72126937 -4.51000977 1.11352539 C-3.51000977 0.11352539 -3.51000977 0.11352539 0 0 Z " fill="#FAFAF9" transform="translate(130.510009765625,63.886474609375)"/>
<path d="M0 0 C0.99 0.33 1.98 0.66 3 1 C5.73289293 1.22797562 8.45042204 1.41668187 11.1875 1.5625 C11.93708984 1.60568359 12.68667969 1.64886719 13.45898438 1.69335938 C15.30578375 1.79922685 17.15286834 1.9000976 19 2 C19.02683987 4.97922593 19.04676037 7.95821295 19.0625 10.9375 C19.07087891 11.78763672 19.07925781 12.63777344 19.08789062 13.51367188 C19.09272461 14.72700195 19.09272461 14.72700195 19.09765625 15.96484375 C19.10551147 17.08814087 19.10551147 17.08814087 19.11352539 18.23413086 C19 20 19 20 18 21 C16.65732587 21.08631874 15.31025678 21.10706473 13.96484375 21.09765625 C12.87224243 21.09390991 12.87224243 21.09390991 11.75756836 21.09008789 C10.8269458 21.08098389 9.89632324 21.07187988 8.9375 21.0625 C4.5134375 21.0315625 4.5134375 21.0315625 0 21 C0 14.07 0 7.14 0 0 Z " fill="#F5F5F5" transform="translate(20,102)"/>
<path d="M0 0 C0.66 0 1.32 0 2 0 C2 6.93 2 13.86 2 21 C-3.94 21 -9.88 21 -16 21 C-16 14.73 -16 8.46 -16 2 C-8.5625 1.5625 -8.5625 1.5625 -6.21704102 1.43188477 C-2.81838919 1.50204421 -2.81838919 1.50204421 0 0 Z " fill="#FBFBFB" transform="translate(163,102)"/>
<path d="M0 0 C0.33 0 0.66 0 1 0 C1 21.45 1 42.9 1 65 C-1.31 65 -3.62 65 -6 65 C-6.11742499 60.70856843 -6.18765996 56.41755727 -6.25 52.125 C-6.28351563 50.92101562 -6.31703125 49.71703125 -6.3515625 48.4765625 C-6.42561478 41.66375286 -5.93675349 36.35685159 -2.96386719 30.17919922 C-1.14021276 26.05611426 -0.85810961 21.94308855 -0.68359375 17.48046875 C-0.64169922 16.45888672 -0.59980469 15.43730469 -0.55664062 14.38476562 C-0.51732422 13.32966797 -0.47800781 12.27457031 -0.4375 11.1875 C-0.39431641 10.11306641 -0.35113281 9.03863281 -0.30664062 7.93164062 C-0.20089017 5.28787918 -0.09879767 2.6440289 0 0 Z " fill="#F3F3F3" transform="translate(173,60)"/>
<path d="M0 0 C0 0.99 0 1.98 0 3 C-9.9 3 -19.8 3 -30 3 C-30 3.66 -30 4.32 -30 5 C-30.66 5 -31.32 5 -32 5 C-32 4.01 -32 3.02 -32 2 C-53.12 2.33 -74.24 2.66 -96 3 C-96.33 6.96 -96.66 10.92 -97 15 C-97.33 15 -97.66 15 -98 15 C-98 11.37 -98 7.74 -98 4 C-104.27 3.67 -110.54 3.34 -117 3 C-116.67 2.34 -116.34 1.68 -116 1 C-106.22929749 0.82539911 -96.45846327 0.65926827 -86.6875 0.5 C-85.95913563 0.48812275 -85.23077126 0.4762455 -84.48033524 0.46400833 C-56.31858454 0.00783902 -28.16565318 -0.12245117 0 0 Z " fill="#2A2928" transform="translate(157,60)"/>
<path d="M0 0 C0.721875 0.165 1.44375 0.33 2.1875 0.5 C0.8675 0.83 -0.4525 1.16 -1.8125 1.5 C-1.91820312 2.03753906 -2.02390625 2.57507813 -2.1328125 3.12890625 C-2.98416511 6.09885473 -4.31263783 8.67067539 -5.6875 11.4375 C-8.79774458 18.03181663 -10.40008749 24.35947008 -11.8125 31.5 C-6.8625 31.5 -1.9125 31.5 3.1875 31.5 C3.8475 29.85 4.5075 28.2 5.1875 26.5 C11.31353511 22.5521107 18.09450515 22.82107354 25.1875 23.5 C28.98530502 24.51101977 31.91644564 26.31929709 35.1875 28.5 C35.1875 29.49 35.1875 30.48 35.1875 31.5 C34.1975 31.5 33.2075 31.5 32.1875 31.5 C31.5275 30.51 30.8675 29.52 30.1875 28.5 C23.84208035 25.20652959 15.70918963 25.56523153 8.9375 27.5 C8.03 27.83 7.1225 28.16 6.1875 28.5 C6.1875 29.49 6.1875 30.48 6.1875 31.5 C8.4975 31.5 10.8075 31.5 13.1875 31.5 C13.1875 32.49 13.1875 33.48 13.1875 34.5 C3.9475 34.5 -5.2925 34.5 -14.8125 34.5 C-14.1063751 26.73262609 -10.8086108 1.92153081 0 0 Z " fill="#373635" transform="translate(39.8125,6.5)"/>
<path d="M0 0 C3.7890625 0.7578125 3.7890625 0.7578125 5.6875 2.9375 C9.07944763 10.85204447 9.41714141 22.75102533 7 31 C6.01 31 5.02 31 4 31 C4 27.7 4 24.4 4 21 C-0.455 20.01 -0.455 20.01 -5 19 C-4.54625 17.72125 -4.0925 16.4425 -3.625 15.125 C-1.95865039 10.15754073 -0.91430992 5.1524053 0 0 Z " fill="#F5F4F4" transform="translate(163,43)"/>
<path d="M0 0 C0.66 0 1.32 0 2 0 C2 1.32 2 2.64 2 4 C16.85 4.33 31.7 4.66 47 5 C47 5.99 47 6.98 47 8 C32.15 8 17.3 8 2 8 C1.67 9.98 1.34 11.96 1 14 C-11.21 14 -23.42 14 -36 14 C-36 13.67 -36 13.34 -36 13 C-18.675 12.505 -18.675 12.505 -1 12 C-1 8.37 -1 4.74 -1 1 C-0.67 0.67 -0.34 0.34 0 0 Z " fill="#565554" transform="translate(110,83)"/>
<path d="M0 0 C0.19335938 1.09699219 0.38671875 2.19398437 0.5859375 3.32421875 C0.84868175 4.77869582 1.11171801 6.23312017 1.375 7.6875 C1.50132813 8.40873047 1.62765625 9.12996094 1.7578125 9.87304688 C2.47492759 13.799252 3.339322 17.33928805 5 21 C2.36 21 -0.28 21 -3 21 C-3.33 25.29 -3.66 29.58 -4 34 C-4.99 34 -5.98 34 -7 34 C-8.20209556 30.23152584 -8.132906 26.62073676 -8.125 22.6875 C-8.12757812 21.41261719 -8.13015625 20.13773438 -8.1328125 18.82421875 C-7.91409579 12.52646393 -7.29723878 7.45312568 -4 2 C-1 0 -1 0 0 0 Z " fill="#F9F8F8" transform="translate(22,41)"/>
<path d="M0 0 C19.23063117 -0.26383488 19.23063117 -0.26383488 23.625 2.875 C30.80035332 12.31625437 34.05653598 22.67833782 37.36914062 33.90087891 C38.18663945 36.62102398 39.08241288 39.31216224 40 42 C39.34 42 38.68 42 38 42 C37.505 42.99 37.505 42.99 37 44 C37 42.68 37 41.36 37 40 C36.34 40 35.68 40 35 40 C35 43.96 35 47.92 35 52 C34.67 52 34.34 52 34 52 C34 48.04 34 44.08 34 40 C25.75 40 17.5 40 9 40 C9 39.67 9 39.34 9 39 C17.58 39 26.16 39 35 39 C33.70169489 32.50847445 32.57054891 27.17581832 30.0625 21.25 C29.81048828 20.62996094 29.55847656 20.00992187 29.29882812 19.37109375 C28.07777395 16.40433809 26.76242601 13.53253339 25.30859375 10.671875 C24 8 24 8 24 6 C20.04 5.67 16.08 5.34 12 5 C12 4.67 12 4.34 12 4 C13.65 4 15.3 4 17 4 C17 3.34 17 2.68 17 2 C11.39 1.67 5.78 1.34 0 1 C0 0.67 0 0.34 0 0 Z " fill="#C7C6C5" transform="translate(125,1)"/>
<path d="M0 0 C3.5622231 -0.11654436 7.12395342 -0.1873639 10.6875 -0.25 C12.19860352 -0.30027344 12.19860352 -0.30027344 13.74023438 -0.3515625 C21.18018874 -0.44977972 21.18018874 -0.44977972 25.01171875 1.65234375 C27.21878133 4.25832531 28.67276188 6.72153416 30.125 9.8125 C30.60195312 10.80894531 31.07890625 11.80539062 31.5703125 12.83203125 C34.31729422 18.91892243 36.73090884 24.93436749 38.6875 31.3125 C38.91244141 32.02728516 39.13738281 32.74207031 39.36914062 33.47851562 C41 38.73791318 41 38.73791318 41 41 C41.66 41 42.32 41 43 41 C46.71607548 47.27087737 47.53449652 51.75460274 47 59 C46.34 59 45.68 59 45 59 C44.98582031 58.3709375 44.97164062 57.741875 44.95703125 57.09375 C44.64118201 51.42553659 43.7027701 48.05973145 40.46484375 43.4609375 C37.42842186 38.35974873 35.70788971 32.5794922 33.71777344 27.00634766 C31.71562226 21.40985842 29.63519415 15.96401316 27 10.625 C26.505 9.60664063 26.01 8.58828125 25.5 7.5390625 C24.10330367 4.75525472 24.10330367 4.75525472 21 3 C18.68354662 2.5438175 18.68354662 2.5438175 16.11328125 2.3671875 C15.17548828 2.28339844 14.23769531 2.19960938 13.27148438 2.11328125 C12.29501953 2.03464844 11.31855469 1.95601563 10.3125 1.875 C9.32443359 1.78863281 8.33636719 1.70226562 7.31835938 1.61328125 C4.87945685 1.40120277 2.44015212 1.19708799 0 1 C0 0.67 0 0.34 0 0 Z " fill="#434242" transform="translate(125,0)"/>
<path d="M0 0 C0.495 1.485 0.495 1.485 1 3 C0.69916504 3.60102539 0.39833008 4.20205078 0.08837891 4.82128906 C-1.29753827 7.59561049 -1.31938046 9.7664282 -1.4140625 12.859375 C-1.45273438 13.97441406 -1.49140625 15.08945313 -1.53125 16.23828125 C-1.5621875 17.39714844 -1.593125 18.55601563 -1.625 19.75 C-1.66367188 20.92433594 -1.70234375 22.09867188 -1.7421875 23.30859375 C-1.8363982 26.20557268 -1.92201602 29.10254626 -2 32 C-2.33 32 -2.66 32 -3 32 C-3 24.74 -3 17.48 -3 10 C-3.99 10.66 -4.98 11.32 -6 12 C-8.18075848 12.24609566 -8.18075848 12.24609566 -10.76457214 12.24050903 C-12.23482094 12.24463303 -12.23482094 12.24463303 -13.73477173 12.24884033 C-14.80867157 12.24164978 -15.88257141 12.23445923 -16.98901367 12.22705078 C-18.12086594 12.22734283 -19.2527182 12.22763489 -20.41886902 12.22793579 C-24.16864629 12.22653989 -27.91822609 12.21096622 -31.66796875 12.1953125 C-34.26442862 12.1915833 -36.8608899 12.18873589 -39.45735168 12.18673706 C-45.59841805 12.17987501 -51.73940263 12.16410414 -57.88043815 12.14403808 C-64.87190034 12.12168878 -71.86336592 12.11068809 -78.85485494 12.10064721 C-93.23660818 12.07973815 -107.61830156 12.04455611 -122 12 C-122 11.67 -122 11.34 -122 11 C-121.12424253 10.99503478 -121.12424253 10.99503478 -120.230793 10.98996925 C-106.02577239 10.90875459 -91.82085709 10.8166672 -77.61598587 10.71247292 C-70.74661741 10.66234765 -63.87726087 10.61590476 -57.0078125 10.578125 C-50.38121681 10.54167052 -43.75474502 10.49496178 -37.12825775 10.44193649 C-34.59728006 10.42337176 -32.06627456 10.40827154 -29.53525543 10.39665604 C-25.99634969 10.37982939 -22.45774221 10.35080245 -18.91894531 10.31884766 C-17.86734222 10.31668747 -16.81573914 10.31452728 -15.73226929 10.31230164 C-14.28520096 10.29555641 -14.28520096 10.29555641 -12.80889893 10.2784729 C-11.9719109 10.27294214 -11.13492287 10.26741138 -10.27257156 10.26171303 C-7.7283652 9.9687181 -6.13455513 9.41128652 -4 8 C-2.84164327 5.02496878 -2.84164327 5.02496878 -2 2 C-1.34 1.34 -0.68 0.68 0 0 Z " fill="#13120F" transform="translate(169,91)"/>
<path d="M0 0 C1.54010742 0.03383789 1.54010742 0.03383789 3.11132812 0.06835938 C5.6382179 0.12712425 8.16210255 0.20922151 10.6875 0.3125 C10.6875 0.6425 10.6875 0.9725 10.6875 1.3125 C10.06705811 1.36784912 9.44661621 1.42319824 8.80737305 1.48022461 C5.99623363 1.73310348 3.18562678 1.99148834 0.375 2.25 C-1.08969727 2.38051758 -1.08969727 2.38051758 -2.58398438 2.51367188 C-3.99067383 2.64418945 -3.99067383 2.64418945 -5.42578125 2.77734375 C-6.28985596 2.855896 -7.15393066 2.93444824 -8.04418945 3.01538086 C-10.47336712 3.26037977 -10.47336712 3.26037977 -13.3125 4.3125 C-13.3125 5.3025 -13.3125 6.2925 -13.3125 7.3125 C-13.9725 7.3125 -14.6325 7.3125 -15.3125 7.3125 C-15.41949219 7.85132813 -15.52648437 8.39015625 -15.63671875 8.9453125 C-16.47669035 11.88764077 -17.77289899 14.4422215 -19.125 17.1875 C-21.90438211 23.07872619 -23.77094452 28.90959417 -25.35546875 35.21875 C-26.31368391 38.31632716 -27.4165908 40.68664126 -29.3125 43.3125 C-29.9725 43.3125 -30.6325 43.3125 -31.3125 43.3125 C-31.456875 44.116875 -31.60125 44.92125 -31.75 45.75 C-32.3125 48.3125 -32.3125 48.3125 -33.3125 49.3125 C-33.68010731 51.64067964 -34.01491581 53.9743385 -34.3125 56.3125 C-34.9725 56.3125 -35.6325 56.3125 -36.3125 56.3125 C-36.60591888 50.63973489 -36.31809652 47.32182754 -33.3125 42.3125 C-32.6525 42.3125 -31.9925 42.3125 -31.3125 42.3125 C-30.69375 40.45625 -30.69375 40.45625 -30.0625 38.5625 C-29.78277344 37.73363281 -29.50304687 36.90476563 -29.21484375 36.05078125 C-28.61938123 34.2437716 -28.04843984 32.4284725 -27.50390625 30.60546875 C-25.6052748 24.43702612 -23.20881308 18.6610601 -20.375 12.875 C-20.05120361 12.20073975 -19.72740723 11.52647949 -19.39379883 10.83178711 C-14.61066923 1.33557126 -10.43742895 -0.43405815 0 0 Z " fill="#454443" transform="translate(49.3125,-0.3125)"/>
<path d="M0 0 C0.33 0 0.66 0 1 0 C1.18175781 1.35544922 1.18175781 1.35544922 1.3671875 2.73828125 C1.53476562 3.91777344 1.70234375 5.09726562 1.875 6.3125 C2.03742187 7.48425781 2.19984375 8.65601563 2.3671875 9.86328125 C2.82300621 13.14530895 2.82300621 13.14530895 5 16 C5 16.99 5 17.98 5 19 C30.74 19 56.48 19 83 19 C83 19.33 83 19.66 83 20 C61.55 20.33 40.1 20.66 18 21 C23.28 21.33 28.56 21.66 34 22 C34 22.33 34 22.66 34 23 C29.75001434 23.02902996 25.50005419 23.04680887 21.25 23.0625 C19.44015625 23.07506836 19.44015625 23.07506836 17.59375 23.08789062 C15.85351562 23.09272461 15.85351562 23.09272461 14.078125 23.09765625 C13.00981445 23.10289307 11.94150391 23.10812988 10.84082031 23.11352539 C8.35664805 23.01425244 6.3388819 22.81827262 4 22 C-1.00744193 15.63251212 -0.42608816 7.65775106 0 0 Z " fill="#4E4E4D" transform="translate(23,41)"/>
<path d="M0 0 C1.11375 0.7425 1.11375 0.7425 2.25 1.5 C2.25 2.49 2.25 3.48 2.25 4.5 C-6 4.5 -14.25 4.5 -22.75 4.5 C-22.75 3.51 -22.75 2.52 -22.75 1.5 C-15.9504232 -2.20886007 -7.19010126 -3.58651132 0 0 Z " fill="#EDEDEB" transform="translate(68.75,33.5)"/>
<path d="M0 0 C0.66 0 1.32 0 2 0 C2.33 7.92 2.66 15.84 3 24 C-4.26 24 -11.52 24 -19 24 C-19.33 16.74 -19.66 9.48 -20 2 C-14.06 2 -8.12 2 -2 2 C-2 2.33 -2 2.66 -2 3 C-6.95 3 -11.9 3 -17 3 C-17 9.27 -17 15.54 -17 22 C-11.06 22 -5.12 22 1 22 C0.67 14.74 0.34 7.48 0 0 Z " fill="#3B3939" transform="translate(164,101)"/>
<path d="M0 0 C0.721875 0.165 1.44375 0.33 2.1875 0.5 C0.8675 0.83 -0.4525 1.16 -1.8125 1.5 C-1.91820312 2.03753906 -2.02390625 2.57507813 -2.1328125 3.12890625 C-2.98416511 6.09885473 -4.31263783 8.67067539 -5.6875 11.4375 C-8.67701541 17.78303391 -11.8125 25.33719965 -11.8125 32.5 C-3.5625 32.83 4.6875 33.16 13.1875 33.5 C13.1875 33.83 13.1875 34.16 13.1875 34.5 C3.9475 34.5 -5.2925 34.5 -14.8125 34.5 C-14.1063751 26.73262609 -10.8086108 1.92153081 0 0 Z " fill="#5B5A58" transform="translate(39.8125,6.5)"/>
<path d="M0 0 C6.24439199 9.11904814 11.47737597 21.9220694 11 33 C10.01 32.505 10.01 32.505 9 32 C7.62657169 31.9310528 6.24997898 31.91532292 4.875 31.9375 C2.956875 31.9684375 2.956875 31.9684375 1 32 C1 31.67 1 31.34 1 31 C3.31 31 5.62 31 8 31 C6.54434643 21.99793188 3.71214553 8.71214553 -3 2 C-4.55948542 1.84313751 -6.12542668 1.74923361 -7.69140625 1.68359375 C-8.63564453 1.64169922 -9.57988281 1.59980469 -10.55273438 1.55664062 C-11.54595703 1.51732422 -12.53917969 1.47800781 -13.5625 1.4375 C-14.55958984 1.39431641 -15.55667969 1.35113281 -16.58398438 1.30664062 C-19.0558415 1.20019702 -21.5278031 1.09818072 -24 1 C-24 0.67 -24 0.34 -24 0 C-20.75052139 -0.19738568 -17.50041127 -0.3811754 -14.25 -0.5625 C-13.32960937 -0.61857422 -12.40921875 -0.67464844 -11.4609375 -0.73242188 C-10.57148438 -0.78076172 -9.68203125 -0.82910156 -8.765625 -0.87890625 C-7.94868164 -0.9260376 -7.13173828 -0.97316895 -6.29003906 -1.02172852 C-3.97768285 -0.99978825 -2.17498401 -0.78279338 0 0 Z " fill="#62605F" transform="translate(149,7)"/>
<path d="M0 0 C21.12 0 42.24 0 64 0 C64 0.33 64 0.66 64 1 C49.48 1.33 34.96 1.66 20 2 C19.67 5.96 19.34 9.92 19 14 C18.67 14 18.34 14 18 14 C18 10.37 18 6.74 18 3 C11.73 2.67 5.46 2.34 -1 2 C-0.67 1.34 -0.34 0.68 0 0 Z " fill="#1F1D1D" transform="translate(41,61)"/>
<path d="M0 0 C0.66 0 1.32 0 2 0 C2.48817841 8.01426231 1.98837518 13.94912244 -2 21 C-0.2984375 21.2165625 -0.2984375 21.2165625 1.4375 21.4375 C5 22 5 22 6 23 C6.07226502 24.85287502 6.0838122 26.70833878 6.0625 28.5625 C6.05347656 29.57441406 6.04445312 30.58632812 6.03515625 31.62890625 C6.02355469 32.41136719 6.01195312 33.19382813 6 34 C5.67 34 5.34 34 5 34 C4.67 30.7 4.34 27.4 4 24 C-14.315 23.505 -14.315 23.505 -33 23 C-33 22.67 -33 22.34 -33 22 C-23.1 22 -13.2 22 -3 22 C-3.33 20.68 -3.66 19.36 -4 18 C-3.54625 17.175 -3.0925 16.35 -2.625 15.5 C-0.29037578 10.47157861 -0.25735656 5.48435704 0 0 Z " fill="#484645" transform="translate(160,41)"/>
<path d="M0 0 C1.98 0.99 1.98 0.99 4 2 C4 2.66 4 3.32 4 4 C9.61 4 15.22 4 21 4 C20.67 4.66 20.34 5.32 20 6 C17.39555652 6.05394705 14.79223002 6.09364469 12.1875 6.125 C11.44951172 6.14175781 10.71152344 6.15851563 9.95117188 6.17578125 C6.08753574 6.21074628 4.29096332 6.19397555 1 4 C1.33 10.93 1.66 17.86 2 25 C6.95 25.33 11.9 25.66 17 26 C17 26.33 17 26.66 17 27 C11.39 27 5.78 27 0 27 C0 18.09 0 9.18 0 0 Z " fill="#272625" transform="translate(19,98)"/>
<path d="M0 0 C0.66 0 1.32 0 2 0 C1.56808366 1.52242851 1.12912438 3.04285919 0.6875 4.5625 C0.44386719 5.40941406 0.20023438 6.25632812 -0.05078125 7.12890625 C-1 10 -1 10 -2.53125 13.25 C-4.40712523 17.52895723 -4.78197513 21.82046917 -5.1875 26.4375 C-5.26935547 27.26443359 -5.35121094 28.09136719 -5.43554688 28.94335938 C-5.63383855 30.96126882 -5.81835402 32.98052412 -6 35 C-7.485 35.495 -7.485 35.495 -9 36 C-10.26404138 28.7051106 -9.84641546 23.77808631 -7 17 C-6.41170024 15.55251377 -5.82457183 14.1045512 -5.23828125 12.65625 C-3.51744308 8.42673595 -1.76480047 4.21134577 0 0 Z " fill="#DCDBD9" transform="translate(31,13)"/>
<path d="M0 0 C1.4540625 0.0309375 1.4540625 0.0309375 2.9375 0.0625 C-0.0625 2.0625 -0.0625 2.0625 -2.0625 2.0625 C-2.0625 8.6625 -2.0625 15.2625 -2.0625 22.0625 C-6.6130496 22.97260992 -10.33210719 23.00321213 -14.875 22.625 C-15.56787109 22.57279297 -16.26074219 22.52058594 -16.97460938 22.46679688 C-18.67104437 22.33810181 -20.36684863 22.20113816 -22.0625 22.0625 C-22.0625 21.7325 -22.0625 21.4025 -22.0625 21.0625 C-13.6475 20.5675 -13.6475 20.5675 -5.0625 20.0625 C-5.00191406 18.70253906 -4.94132812 17.34257813 -4.87890625 15.94140625 C-4.79451829 14.16925903 -4.70986942 12.39712423 -4.625 10.625 C-4.58568359 9.72716797 -4.54636719 8.82933594 -4.50585938 7.90429688 C-4.46396484 7.05029297 -4.42207031 6.19628906 -4.37890625 5.31640625 C-4.34224854 4.52564697 -4.30559082 3.7348877 -4.26782227 2.92016602 C-3.91521821 -0.27004119 -3.29482474 0.06724132 0 0 Z " fill="#454544" transform="translate(43.0625,101.9375)"/>
<path d="M0 0 C0.66 0 1.32 0 2 0 C1.41856638 5.465476 0.48774061 11.04578151 -2 16 C-2.99 16.33 -3.98 16.66 -5 17 C-5.144375 17.804375 -5.28875 18.60875 -5.4375 19.4375 C-6 22 -6 22 -7 23 C-7.36760731 25.32817964 -7.70241581 27.6618385 -8 30 C-8.66 30 -9.32 30 -10 30 C-10.29341888 24.32723489 -10.00559652 21.00932754 -7 16 C-6.34 16 -5.68 16 -5 16 C-3.19695845 10.69905784 -1.49276376 5.39691512 0 0 Z " fill="#403E3D" transform="translate(23,26)"/>
<path d="M0 0 C3.5622231 -0.11654436 7.12395342 -0.1873639 10.6875 -0.25 C12.19860352 -0.30027344 12.19860352 -0.30027344 13.74023438 -0.3515625 C21.21594101 -0.4502517 21.21594101 -0.4502517 25.15625 1.8125 C27.4343645 4.51534771 27.76238047 6.5149136 28 10 C26.36635799 8.36635799 24.90263055 6.86241274 23.5625 4.96875 C19.53326487 1.87311813 15.20759268 2.06686345 10.25 1.75 C9.26644531 1.67265625 8.28289062 1.5953125 7.26953125 1.515625 C4.84709437 1.32747456 2.4246704 1.15622549 0 1 C0 0.67 0 0.34 0 0 Z " fill="#3E3C3A" transform="translate(125,0)"/>
<path d="M0 0 C0.33 0.99 0.66 1.98 1 3 C0.54874756 3.90153809 0.54874756 3.90153809 0.08837891 4.82128906 C-1.29753827 7.59561049 -1.31938046 9.7664282 -1.4140625 12.859375 C-1.45273438 13.97441406 -1.49140625 15.08945313 -1.53125 16.23828125 C-1.5621875 17.39714844 -1.593125 18.55601563 -1.625 19.75 C-1.68300781 21.51150391 -1.68300781 21.51150391 -1.7421875 23.30859375 C-1.8363982 26.20557268 -1.92201602 29.10254626 -2 32 C-2.33 32 -2.66 32 -3 32 C-3 24.74 -3 17.48 -3 10 C-4.98 10.99 -4.98 10.99 -7 12 C-7 11.01 -7 10.02 -7 9 C-6.01 8.67 -5.02 8.34 -4 8 C-3.28293018 6.01751285 -2.61709587 4.01584651 -2 2 C-1.34 1.34 -0.68 0.68 0 0 Z " fill="#272726" transform="translate(169,91)"/>
<path d="M0 0 C4.20400029 6.30600043 6.67459432 13.41081393 6 21 C5.34 20.67 4.68 20.34 4 20 C2.62657169 19.9310528 1.24997898 19.91532292 -0.125 19.9375 C-2.043125 19.9684375 -2.043125 19.9684375 -4 20 C-4 19.67 -4 19.34 -4 19 C-1.69 19 0.62 19 3 19 C1.67355598 11.93595992 1.67355598 11.93595992 -0.1875 5 C-1 2 -1 2 0 0 Z " fill="#575554" transform="translate(154,19)"/>
<path d="M0 0 C19.10679612 -0.26213592 19.10679612 -0.26213592 24 3 C24 3.99 24 4.98 24 6 C20.04 5.67 16.08 5.34 12 5 C12 4.67 12 4.34 12 4 C13.65 4 15.3 4 17 4 C17 3.34 17 2.68 17 2 C11.39 1.67 5.78 1.34 0 1 C0 0.67 0 0.34 0 0 Z " fill="#D6D4D2" transform="translate(125,1)"/>
<path d="M0 0 C0.66 0 1.32 0 2 0 C2.33 7.92 2.66 15.84 3 24 C-3.6 23.67 -10.2 23.34 -17 23 C-17 22.67 -17 22.34 -17 22 C-11.06 22 -5.12 22 1 22 C0.67 14.74 0.34 7.48 0 0 Z " fill="#6F6F6E" transform="translate(164,101)"/>
<path d="M0 0 C4.93767666 6.39162809 8.72952718 12.95367215 10 21 C9.34 21.66 8.68 22.32 8 23 C7.67386719 22.13117187 7.34773437 21.26234375 7.01171875 20.3671875 C6.57472656 19.21476562 6.13773438 18.06234375 5.6875 16.875 C5.25824219 15.73804688 4.82898438 14.60109375 4.38671875 13.4296875 C3.06209688 9.99120489 3.06209688 9.99120489 1.33203125 6.8203125 C0 4 0 4 0 0 Z " fill="#CECCCB" transform="translate(149,5)"/>
<path d="M0 0 C3.85294743 4.62353692 7.6500678 10.87618648 8 17 C7.34 17.99 6.68 18.98 6 20 C5.82984375 19.3709375 5.6596875 18.741875 5.484375 18.09375 C4.23169781 13.66940079 2.90622284 9.57286536 0.75 5.5 C0.1725 4.345 -0.405 3.19 -1 2 C-0.67 1.34 -0.34 0.68 0 0 Z " fill="#4C4A48" transform="translate(153,8)"/>
<path d="M0 0 C0.99 0 1.98 0 3 0 C2.88617347 1.95901454 2.75858875 3.9172338 2.625 5.875 C2.55539063 6.96554688 2.48578125 8.05609375 2.4140625 9.1796875 C2 12 2 12 0 14 C0 9.38 0 4.76 0 0 Z " fill="#413F40" transform="translate(73,82)"/>
<path d="M0 0 C0 0.99 0 1.98 0 3 C-3.63 3 -7.26 3 -11 3 C-11 2.34 -11 1.68 -11 1 C-3.375 0 -3.375 0 0 0 Z " fill="#23211F" transform="translate(157,60)"/>
<path d="M0 0 C0.66 0.99 1.32 1.98 2 3 C0.35 3.33 -1.3 3.66 -3 4 C-3.33 5.32 -3.66 6.64 -4 8 C-4.66 7.67 -5.32 7.34 -6 7 C-4.52307692 2.32307692 -4.52307692 2.32307692 -1.875 0.6875 C-1.25625 0.460625 -0.6375 0.23375 0 0 Z " fill="#4E4B4A" transform="translate(49,31)"/>
<path d="M0 0 C5.94 0 11.88 0 18 0 C18 0.99 18 1.98 18 3 C17.34 2.67 16.68 2.34 16 2 C13.28737884 1.7677354 10.59226874 1.58063765 7.875 1.4375 C7.12089844 1.39431641 6.36679688 1.35113281 5.58984375 1.30664062 C3.72678112 1.2005168 1.86341476 1.09974999 0 1 C0 0.67 0 0.34 0 0 Z " fill="#212020" transform="translate(92,81)"/>
<path d="M0 0 C3.96 0 7.92 0 12 0 C11.67 0.99 11.34 1.98 11 3 C9.68 3 8.36 3 7 3 C7 2.34 7 1.68 7 1 C4.69 1 2.38 1 0 1 C0 0.67 0 0.34 0 0 Z " fill="#373535" transform="translate(29,60)"/>
<path d="M0 0 C2.625 -0.1875 2.625 -0.1875 5 0 C3.68 0.33 2.36 0.66 1 1 C0.855625 1.598125 0.71125 2.19625 0.5625 2.8125 C0.1127561 4.56150404 -0.42892341 6.28677023 -1 8 C-1.66 8 -2.32 8 -3 8 C-2.45276317 4.62537285 -1.9451 2.91765 0 0 Z " fill="#3C3A39" transform="translate(37,7)"/>
<path d="M0 0 C0.33 0 0.66 0 1 0 C1.22036864 3.85645121 0.60355101 6.49223216 -1 10 C-1.66 9.34 -2.32 8.68 -3 8 C-2.64700993 4.55834679 -1.95418308 2.93127462 0 0 Z " fill="#494847" transform="translate(27,18)"/>
<path d="M0 0 C2.64 0.33 5.28 0.66 8 1 C8 1.66 8 2.32 8 3 C5.08517222 3.80967438 3.53886783 4.21845993 0.6875 3.0625 C0.130625 2.711875 -0.42625 2.36125 -1 2 C-0.67 1.34 -0.34 0.68 0 0 Z " fill="#22211F" transform="translate(28,60)"/>
<path d="M0 0 C2.95183101 2.95183101 3.08663988 5.95511947 4 10 C3.01 9.67 2.02 9.34 1 9 C0.67 6.03 0.34 3.06 0 0 Z " fill="#40403E" transform="translate(160,25)"/>
<path d="M0 0 C1.875 0.25 1.875 0.25 4 1 C5.3125 2.875 5.3125 2.875 6 5 C5.67 5.99 5.34 6.98 5 8 C4.54625 7.195625 4.0925 6.39125 3.625 5.5625 C2.25274335 2.91143428 2.25274335 2.91143428 0 2 C0 1.34 0 0.68 0 0 Z " fill="#373535" transform="translate(147,2)"/>
<path d="M0 0 C0.66 0.66 1.32 1.32 2 2 C1.01 3.98 0.02 5.96 -1 8 C-1.66 8 -2.32 8 -3 8 C-1.125 1.125 -1.125 1.125 0 0 Z " fill="#515050" transform="translate(33,14)"/>
</svg>
