<?xml version="1.0" encoding="UTF-8"?>
<svg version="1.1" xmlns="http://www.w3.org/2000/svg" width="162" height="189">
<path d="M0 0 C53.46 0 106.92 0 162 0 C162 62.37 162 124.74 162 189 C108.54 189 55.08 189 0 189 C0 126.63 0 64.26 0 0 Z " fill="#ADACAB" transform="translate(0,0)"/>
<path d="M0 0 C53.46 0 106.92 0 162 0 C162 62.37 162 124.74 162 189 C108.54 189 55.08 189 0 189 C0 156.33 0 123.66 0 90 C6.27160269 96.27160269 5.50270227 104.57622566 5.625 112.875 C5.67573996 115.3308139 5.73021291 117.78655455 5.7890625 120.2421875 C5.80662598 121.3235498 5.82418945 122.40491211 5.84228516 123.51904297 C5.72197967 125.94225366 5.72197967 125.94225366 7 127 C8.4887186 127.08669432 9.981445 127.10703494 11.47265625 127.09765625 C12.82133789 127.09282227 12.82133789 127.09282227 14.19726562 127.08789062 C15.14279297 127.07951172 16.08832031 127.07113281 17.0625 127.0625 C18.4865918 127.05573242 18.4865918 127.05573242 19.93945312 127.04882812 C22.29303065 127.0370011 24.64648477 127.02052025 27 127 C27.02505615 126.39937744 27.0501123 125.79875488 27.07592773 125.17993164 C27.1915528 122.47388563 27.31442936 119.76821717 27.4375 117.0625 C27.47681641 116.11697266 27.51613281 115.17144531 27.55664062 114.19726562 C27.59853516 113.29814453 27.64042969 112.39902344 27.68359375 111.47265625 C27.72025146 110.64000244 27.75690918 109.80734863 27.79467773 108.94946289 C28 107 28 107 29 106 C30.34072817 105.90472963 31.68642503 105.8781123 33.03053284 105.87974548 C33.89856537 105.87837082 34.7665979 105.87699615 35.66093445 105.87557983 C36.62046524 105.87917511 37.57999603 105.88277039 38.56860352 105.88647461 C39.57336731 105.88632858 40.5781311 105.88618256 41.61334229 105.8860321 C44.95188517 105.8867317 48.29037305 105.89452626 51.62890625 105.90234375 C53.93676218 105.90420776 56.24461851 105.90563174 58.55247498 105.90663147 C64.64017826 105.91045796 70.72785786 105.92028935 76.81555176 105.93133545 C83.02221354 105.94154677 89.22887913 105.94612849 95.43554688 105.95117188 C107.62371002 105.9619115 119.81184934 105.97950936 132 106 C132.33 113.26 132.66 120.52 133 128 C143.395 127.505 143.395 127.505 154 127 C153.9690625 123.3803125 153.9690625 123.3803125 153.9375 119.6875 C153.9039317 105.39761938 153.9039317 105.39761938 155 100 C155.66 99.34 156.32 98.68 157 98 C161.09734427 83.60290958 162.75379191 64.39528536 158 50 C156.61043226 47.65485559 155.07260394 45.51356954 153.4453125 43.328125 C151.268255 39.82129725 150.64120396 36.17135069 149.7578125 32.17578125 C147.43477384 22.44057283 143.14515172 9.67623917 134.32617188 3.90454102 C131.18267143 2.6821786 128.148456 2.52768736 124.81640625 2.3828125 C123.66731529 2.32651169 123.66731529 2.32651169 122.49501038 2.26907349 C110.13396535 1.74806729 97.74750547 1.85048096 85.37768555 1.86962891 C81.67774208 1.875331 77.97787035 1.87192542 74.27792931 1.86620712 C46.90901285 -0.38796052 46.90901285 -0.38796052 22.17578125 6.41015625 C20.52397658 8.64365957 19.35568752 11.08308185 18.16796875 13.5859375 C17.33860515 15.30014053 16.46076559 16.99126111 15.55078125 18.6640625 C11.33139249 26.55017448 9.00906736 34.34919232 7 43 C6.34 43 5.68 43 5 43 C4.896875 43.53625 4.79375 44.0725 4.6875 44.625 C3.81907303 47.62502044 2.44379704 50.2379535 1 53 C0.67 53 0.34 53 0 53 C0 35.51 0 18.02 0 0 Z " fill="#FEFEFE" transform="translate(0,0)"/>
<path d="M0 0 C52.14 0 104.28 0 158 0 C155.5974026 18.01948052 155.5974026 18.01948052 151 23 C148.37598177 24.31200912 146.41799557 24.14090434 143.47819519 24.16062927 C142.30469009 24.1706749 141.131185 24.18072052 139.92211914 24.19107056 C137.98103271 24.19981705 137.98103271 24.19981705 136.00073242 24.20874023 C134.62925475 24.21827709 133.25777951 24.22816818 131.88630676 24.23838806 C127.37605653 24.2697905 122.86578775 24.29004069 118.35546875 24.30859375 C117.58841307 24.31189107 116.82135739 24.31518839 116.0310576 24.31858563 C108.79858801 24.34936532 101.56611431 24.37607598 94.33359814 24.39300442 C85.07873932 24.41491953 75.82446006 24.45690711 66.56983298 24.52644199 C60.06446368 24.57366285 53.55925086 24.5979353 47.05371553 24.6052013 C43.16718022 24.61016032 39.28129792 24.62526314 35.39494896 24.6649456 C31.73805871 24.70179303 28.08219487 24.71022898 24.42515373 24.69693947 C22.44482134 24.69701918 20.46456022 24.7268813 18.48446655 24.75762939 C9.9927772 24.6879901 9.9927772 24.6879901 7.10567665 22.68724251 C1.41219841 16.02460034 0.85544828 8.55448279 0 0 Z " fill="#FDFDFD" transform="translate(1,80)"/>
<path d="M0 0 C0.66 0 1.32 0 2 0 C1.34 4.95 0.68 9.9 0 15 C1.13574463 14.93941406 2.27148926 14.87882812 3.44165039 14.81640625 C27.77644536 13.54401018 52.06756566 12.79760711 76.4375 12.8125 C77.60137238 12.8117749 78.76524475 12.8110498 79.96438599 12.81030273 C114.43822289 12.81274096 114.43822289 12.81274096 121 15 C123.22574335 15.22451458 125.45581519 15.40782878 127.6875 15.5625 C128.86699219 15.64628906 130.04648438 15.73007812 131.26171875 15.81640625 C132.16535156 15.87699219 133.06898438 15.93757813 134 16 C134 18.31 134 20.62 134 23 C102.67959553 23.20638953 102.67959553 23.20638953 89 22 C89 22.66 89 23.32 89 24 C90.21429688 23.98839844 91.42859375 23.97679688 92.6796875 23.96484375 C107.14127738 23.87335994 121.55405234 24.35421753 136 25 C136.33 22.69 136.66 20.38 137 18 C138.32 18 139.64 18 141 18 C144.26204794 21.8445565 144.28855285 25.0946016 144 30 C144.66 30 145.32 30 146 30 C146.02722517 32.20826378 146.04649729 34.41662638 146.0625 36.625 C146.07410156 37.85476562 146.08570313 39.08453125 146.09765625 40.3515625 C146.00863924 43.67723791 145.63686087 46.74047588 145 50 C144.01 50 143.02 50 142 50 C142 43.73 142 37.46 142 31 C132.1 31.33 122.2 31.66 112 32 C111.67 37.94 111.34 43.88 111 50 C102.42 50 93.84 50 85 50 C85 44.72 85 39.44 85 34 C73.12 34 61.24 34 49 34 C48.67 39.28 48.34 44.56 48 50 C39.75 50 31.5 50 23 50 C23 43.73 23 37.46 23 31 C12.77 31 2.54 31 -8 31 C-8 37.27 -8 43.54 -8 50 C-8.99 50 -9.98 50 -11 50 C-13.77060028 41.68819917 -12.32400089 31.27925317 -10 23 C-9.34 23 -8.68 23 -8 23 C-7.8453125 22.1646875 -7.8453125 22.1646875 -7.6875 21.3125 C-7 19 -7 19 -5.59375 16.8125 C-3.72386696 13.5127064 -2.80362285 10.34440156 -1.8125 6.6875 C-1.29623047 4.80611328 -1.29623047 4.80611328 -0.76953125 2.88671875 C-0.51558594 1.93410156 -0.26164063 0.98148438 0 0 Z " fill="#F7F7F7" transform="translate(13,27)"/>
<path d="M0 0 C2.35742118 0.00889369 4.71484308 0.01759956 7.07226562 0.02612305 C14.09008767 0.05790764 21.10746113 0.11800171 28.125 0.1875 C29.69175476 0.20200195 29.69175476 0.20200195 31.29016113 0.21679688 C36.89748472 0.2709238 42.50386277 0.34465217 48.1104126 0.45297241 C49.77549682 0.48411267 51.44066892 0.51088642 53.105896 0.53311157 C55.39410456 0.56599966 57.68105531 0.61789675 59.96875 0.67578125 C61.23912109 0.70196533 62.50949219 0.72814941 63.81835938 0.75512695 C67.38414644 1.22138573 69.28301236 2.01848021 72.125 4.1875 C74.0390625 7.2265625 74.0390625 7.2265625 75.75 10.8125 C76.04849854 11.43624512 76.34699707 12.05999023 76.65454102 12.70263672 C79.51684784 18.79536238 82.125 24.41029898 82.125 31.1875 C78.83335584 31.21824977 75.54174983 31.23484063 72.25 31.25 C71.37085938 31.25837891 70.49171875 31.26675781 69.5859375 31.27539062 C64.22767498 31.29349286 58.89671468 31.19002746 53.54443359 30.94506836 C36.83029524 30.18110669 20.22444835 30.24529228 3.5 30.625 C-1.51295216 30.7313765 -6.52598307 30.83340787 -11.5390625 30.93359375 C-12.74210022 30.95819672 -13.94513794 30.98279968 -15.18463135 31.00814819 C-26.74843385 31.23150617 -38.30952039 31.24693572 -49.875 31.1875 C-49.58790462 29.59244181 -49.29189893 27.99898584 -48.9921875 26.40625 C-48.82831543 25.51873047 -48.66444336 24.63121094 -48.49560547 23.71679688 C-47.78958224 20.83937727 -46.54627166 18.54155905 -44.953125 16.05078125 C-43.17368403 12.97544306 -42.03669596 9.64860523 -40.8046875 6.32421875 C-39.875 4.1875 -39.875 4.1875 -37.875 2.1875 C-25.84860214 -1.2918267 -12.36168326 -0.07610104 0 0 Z " fill="#FCFCFC" transform="translate(63.875,8.8125)"/>
<path d="M0 0 C10.60507633 -0.06952305 21.21009841 -0.12282304 31.81535625 -0.15543652 C36.73986043 -0.17108968 41.66420863 -0.19232168 46.58862305 -0.22631836 C51.34132736 -0.25892412 56.09388169 -0.27685564 60.84668922 -0.28463173 C62.65957818 -0.29017304 64.47245897 -0.30099388 66.28528404 -0.31719017 C68.82537932 -0.3389807 71.36485553 -0.34196626 73.9050293 -0.34057617 C74.65381348 -0.351362 75.40259766 -0.36214783 76.17407227 -0.3732605 C80.64576856 -0.34679617 83.42373624 0.28955253 87 3 C95.91972548 12.09462206 99.78862375 24.81125713 103.0390625 36.84765625 C103.90860682 39.70018579 104.72151949 41.36137763 106.5 43.6875 C114.98842063 56.88336333 111.76674061 78.37302945 108.8515625 93.0078125 C108 96 108 96 106 98 C104.57887046 105.86984003 104.9333142 114.07381972 105.0625 122.04296875 C105 125 105 125 104 126 C102.43827255 126.08685603 100.87270656 126.10702219 99.30859375 126.09765625 C98.36435547 126.09443359 97.42011719 126.09121094 96.44726562 126.08789062 C95.45404297 126.07951172 94.46082031 126.07113281 93.4375 126.0625 C92.44041016 126.05798828 91.44332031 126.05347656 90.41601562 126.04882812 C87.94395151 126.03700007 85.47200482 126.02051849 83 126 C79.7170474 119.4340948 82 111.34090518 82 104 C49.66 104 17.32 104 -16 104 C-16 103.67 -16 103.34 -16 103 C-15.41008616 102.99576806 -14.82017233 102.99153612 -14.21238232 102.98717594 C0.1341159 102.88392155 14.48056593 102.7752916 28.82697773 102.66066074 C35.76476164 102.60535635 42.7025507 102.55187892 49.64038086 102.50268555 C56.33177305 102.45523445 63.02310768 102.40271449 69.71443748 102.34705925 C72.2713714 102.32662894 74.82831962 102.307917 77.3852787 102.29092598 C80.95783299 102.26689706 84.53028826 102.23684022 88.1027832 102.20532227 C89.16733231 102.1995668 90.23188141 102.19381134 91.32868958 102.18788147 C92.30044128 102.17809265 93.27219299 102.16830383 94.27339172 102.15821838 C95.11867589 102.15176583 95.96396006 102.14531328 96.83485889 102.1386652 C99.18292847 102.08066139 99.18292847 102.08066139 102 101 C103.10636395 98.60931266 103.10636395 98.60931266 104 96 C104.99 94.515 104.99 94.515 106 93 C106.99 88.05 107.98 83.1 109 78 C57.19 78 5.38 78 -48 78 C-48 77.67 -48 77.34 -48 77 C0.015 76.505 0.015 76.505 49 76 C49 75.67 49 75.34 49 75 C57.25 75 65.5 75 74 75 C73.96042231 69.12116997 73.96042231 69.12116997 73.90991211 63.24243164 C73.90741455 62.51403076 73.90491699 61.78562988 73.90234375 61.03515625 C73.89710693 60.2862915 73.89187012 59.53742676 73.88647461 58.76586914 C74 57 74 57 75 56 C77.21855264 55.91216458 79.43988496 55.89305391 81.66015625 55.90234375 C82.65685585 55.90446617 82.65685585 55.90446617 83.6736908 55.90663147 C85.80333899 55.91224482 87.93288339 55.92479946 90.0625 55.9375 C91.50325369 55.94251329 92.94400903 55.94707649 94.38476562 55.95117188 C97.92321102 55.96221855 101.46159539 55.97949208 105 56 C106.12050151 59.36150452 106.13296652 61.96286726 106.125 65.5 C106.12757813 66.6446875 106.13015625 67.789375 106.1328125 68.96875 C106 72 106 72 105 75 C105.99 75 106.98 75 108 75 C108.33 68.4 108.66 61.8 109 55 C108.34 55 107.68 55 107 55 C106.95875 54.05125 106.9175 53.1025 106.875 52.125 C106.39454261 48.70766222 105.2118152 46.54887042 103.3125 43.6875 C100.35395595 39.06345729 98.7283477 34.51161486 97.125 29.3125 C95.17809191 23.10827484 92.94568365 17.27194353 89.9375 11.5 C89.62119629 10.87134033 89.30489258 10.24268066 88.97900391 9.5949707 C86.82893563 5.63846999 85.2178355 4.35739704 81 3 C72.02580915 1.44030605 62.69839707 1.78602469 53.61328125 1.68359375 C52.0595806 1.66297368 50.50588493 1.64197608 48.95219421 1.62062073 C44.89995395 1.56592092 40.84766755 1.51628619 36.79534912 1.46777344 C32.64542629 1.41717333 28.4955689 1.36169011 24.34570312 1.30664062 C16.23052439 1.19969812 8.11529023 1.09811646 0 1 C0 0.67 0 0.34 0 0 Z " fill="#424140" transform="translate(50,2)"/>
<path d="M0 0 C53.46 0 106.92 0 162 0 C162 29.04 162 58.08 162 88 C161.01 88.495 161.01 88.495 160 89 C160.01571045 87.86739746 160.01571045 87.86739746 160.03173828 86.71191406 C160.07382418 83.22464451 160.09949112 79.7374287 160.125 76.25 C160.15013672 74.46916016 160.15013672 74.46916016 160.17578125 72.65234375 C160.23563991 61.69820848 160.11943786 52.29144312 153.4453125 43.328125 C151.268255 39.82129725 150.64120396 36.17135069 149.7578125 32.17578125 C147.43477384 22.44057283 143.14515172 9.67623917 134.32617188 3.90454102 C131.18267143 2.6821786 128.148456 2.52768736 124.81640625 2.3828125 C123.66731529 2.32651169 123.66731529 2.32651169 122.49501038 2.26907349 C110.13396535 1.74806729 97.74750547 1.85048096 85.37768555 1.86962891 C81.67774208 1.875331 77.97787035 1.87192542 74.27792931 1.86620712 C46.90901285 -0.38796052 46.90901285 -0.38796052 22.17578125 6.41015625 C20.52397658 8.64365957 19.35568752 11.08308185 18.16796875 13.5859375 C17.33860515 15.30014053 16.46076559 16.99126111 15.55078125 18.6640625 C11.33139249 26.55017448 9.00906736 34.34919232 7 43 C6.34 43 5.68 43 5 43 C4.896875 43.53625 4.79375 44.0725 4.6875 44.625 C3.81907303 47.62502044 2.44379704 50.2379535 1 53 C0.67 53 0.34 53 0 53 C0 35.51 0 18.02 0 0 Z " fill="#FAFAFA" transform="translate(0,0)"/>
<path d="M0 0 C0.66 0 1.32 0 2 0 C1.34 4.95 0.68 9.9 0 15 C1.13574463 14.93941406 2.27148926 14.87882812 3.44165039 14.81640625 C27.77644536 13.54401018 52.06756566 12.79760711 76.4375 12.8125 C77.60137238 12.8117749 78.76524475 12.8110498 79.96438599 12.81030273 C114.43822289 12.81274096 114.43822289 12.81274096 121 15 C123.22574335 15.22451458 125.45581519 15.40782878 127.6875 15.5625 C128.86699219 15.64628906 130.04648438 15.73007812 131.26171875 15.81640625 C132.16535156 15.87699219 133.06898438 15.93757813 134 16 C134 18.31 134 20.62 134 23 C89.78 23 45.56 23 0 23 C-3.65399363 13.25601698 -3.46229823 9.27401312 0 0 Z " fill="#F9F9F9" transform="translate(13,27)"/>
<path d="M0 0 C0.33 0 0.66 0 1 0 C1.0825 1.299375 1.165 2.59875 1.25 3.9375 C1.97313591 10.48704527 4.4470566 17.13222555 9 22 C11.61453828 22.60747141 11.61453828 22.60747141 14.63774109 22.51898193 C15.8114325 22.53289474 16.9851239 22.54680756 18.19438171 22.56114197 C19.48334854 22.5561116 20.77231537 22.55108124 22.1003418 22.54589844 C23.47023698 22.55463169 24.84012195 22.5651166 26.20999146 22.57722473 C29.93085035 22.60513647 33.65137726 22.6084883 37.37232566 22.60750484 C41.2601594 22.61062955 45.14784264 22.63623844 49.03559875 22.65948486 C56.39847643 22.70008252 63.76126545 22.72039436 71.12423784 22.73345876 C79.50633154 22.74931611 87.8882741 22.78772632 96.27028024 22.82805204 C113.5134751 22.91050246 130.75664577 22.96456236 148 23 C148 23.33 148 23.66 148 24 C147.11789463 24.00634791 147.11789463 24.00634791 146.21796894 24.01282406 C131.90415057 24.11616124 117.59037973 24.22480358 103.27664661 24.33933926 C96.35461402 24.39460027 89.43257627 24.44807045 82.51049805 24.49731445 C75.83206499 24.54483019 69.15368852 24.59735012 62.475317 24.65294075 C59.92561811 24.67334281 57.37590516 24.69205943 54.82618141 24.70907402 C51.25882507 24.73316543 47.69156544 24.76321382 44.12426758 24.79467773 C43.06690903 24.8004332 42.00955048 24.80618866 40.92015076 24.81211853 C39.94564972 24.82190735 38.97114868 24.83169617 37.96711731 24.84178162 C37.12367673 24.84823417 36.28023615 24.85468672 35.41123676 24.8613348 C32.86389112 25.00782734 30.48731166 25.44323866 28 26 C27.97494385 26.60062256 27.9498877 27.20124512 27.92407227 27.82006836 C27.8084472 30.52611437 27.68557064 33.23178283 27.5625 35.9375 C27.52318359 36.88302734 27.48386719 37.82855469 27.44335938 38.80273438 C27.40146484 39.70185547 27.35957031 40.60097656 27.31640625 41.52734375 C27.27974854 42.35999756 27.24309082 43.19265137 27.20532227 44.05053711 C27 46 27 46 26 47 C22.69483066 47.25035974 19.37603959 47.18521952 16.0625 47.1875 C15.12986328 47.19974609 14.19722656 47.21199219 13.23632812 47.22460938 C12.34494141 47.22654297 11.45355469 47.22847656 10.53515625 47.23046875 C9.714104 47.23457764 8.89305176 47.23868652 8.04711914 47.24291992 C6 47 6 47 4 45 C3.74462891 42.43725586 3.74462891 42.43725586 3.7265625 39.21484375 C3.7059375 38.04373047 3.6853125 36.87261719 3.6640625 35.66601562 C3.63830801 33.20774961 3.61990903 30.74939398 3.609375 28.29101562 C3.47907644 21.66388603 2.90667119 16.74198645 -0.14501953 10.8347168 C-1.28903499 8.37975501 -1.25218651 6.57397916 -0.75 3.9375 C-0.62109375 3.18339844 -0.4921875 2.42929688 -0.359375 1.65234375 C-0.24078125 1.10707031 -0.1221875 0.56179687 0 0 Z " fill="#545454" transform="translate(1,81)"/>
<path d="M0 0 C9.57 0 19.14 0 29 0 C24 5 24 5 22.30078125 6.59765625 C20.39919812 8.64771133 19.35726522 11.07975721 18.16796875 13.5859375 C17.33860515 15.30014053 16.46076559 16.99126111 15.55078125 18.6640625 C11.33139249 26.55017448 9.00906736 34.34919232 7 43 C6.34 43 5.68 43 5 43 C4.896875 43.53625 4.79375 44.0725 4.6875 44.625 C3.81907303 47.62502044 2.44379704 50.2379535 1 53 C0.67 53 0.34 53 0 53 C0 35.51 0 18.02 0 0 Z " fill="#FCFCFC" transform="translate(0,0)"/>
<path d="M0 0 C8.58 0 17.16 0 26 0 C26 5.94 26 11.88 26 18 C17.42 18.33 8.84 18.66 0 19 C-2.50973137 11.47080588 -3.0106771 7.52669275 0 0 Z " fill="#F2F2F1" transform="translate(8,59)"/>
<path d="M0 0 C0.68287582 -0.00095673 1.36575165 -0.00191345 2.06932068 -0.00289917 C3.5126047 -0.00357973 4.95589178 -0.0017341 6.39916992 0.00244141 C8.61579203 0.00779968 10.83221227 0.00248807 13.04882812 -0.00390625 C14.4492192 -0.00324561 15.84961015 -0.00196473 17.25 0 C18.53076416 0.00112793 19.81152832 0.00225586 21.13110352 0.00341797 C24.05859375 0.1328125 24.05859375 0.1328125 25.05859375 1.1328125 C25.05859375 5.4228125 25.05859375 9.7128125 25.05859375 14.1328125 C13.83859375 14.1328125 2.61859375 14.1328125 -8.94140625 14.1328125 C-8.94140625 9.8428125 -8.94140625 5.5528125 -8.94140625 1.1328125 C-5.97890538 -0.34843794 -3.3022773 0.00290566 0 0 Z " fill="#F0EFEF" transform="translate(71.94140625,60.8671875)"/>
<path d="M0 0 C8.91 0 17.82 0 27 0 C27.97771193 2.9331358 28.13419011 4.88178994 28.125 7.9375 C28.12886719 9.21947266 28.12886719 9.21947266 28.1328125 10.52734375 C28 13 28 13 27 17 C18.09 17 9.18 17 0 17 C0 11.39 0 5.78 0 0 Z " fill="#FEFDFD" transform="translate(126,60)"/>
<path d="M0 0 C1.27617187 0.02320313 2.55234375 0.04640625 3.8671875 0.0703125 C5.78917969 0.09738281 5.78917969 0.09738281 7.75 0.125 C9.23113281 0.15980469 9.23113281 0.15980469 10.7421875 0.1953125 C10.7421875 0.5253125 10.7421875 0.8553125 10.7421875 1.1953125 C9.85015625 1.25847656 8.958125 1.32164063 8.0390625 1.38671875 C1.62873166 1.80547059 1.62873166 1.80547059 -3.90625 4.60546875 C-4.95261931 6.44289327 -5.62981129 8.17701929 -6.2578125 10.1953125 C-6.77724626 11.55001663 -7.29808663 12.90418225 -7.8203125 14.2578125 C-8.17609375 15.26328125 -8.17609375 15.26328125 -8.5390625 16.2890625 C-9.2578125 18.1953125 -9.2578125 18.1953125 -10.8203125 21.2578125 C-12.4080849 24.50239089 -13.30351668 27.71807152 -14.2578125 31.1953125 C-13.67708481 31.16861984 -13.09635712 31.14192719 -12.49803162 31.11442566 C4.22386144 30.35639743 20.94364975 29.82549719 37.6796875 29.5078125 C38.93770172 29.48341095 40.19571594 29.4590094 41.49185181 29.43386841 C66.96474111 28.97141076 92.311301 29.77115497 117.7421875 31.1953125 C115.65743641 24.06045495 113.57999327 17.16066627 110.2421875 10.5078125 C109.675 9.34894531 109.1078125 8.19007812 108.5234375 6.99609375 C106.69410601 4.11971069 105.93414571 3.18529954 102.7421875 2.1953125 C100.38654154 1.74720113 100.38654154 1.74720113 97.9921875 1.5703125 C96.79335937 1.45816406 96.79335937 1.45816406 95.5703125 1.34375 C94.66539063 1.27027344 94.66539063 1.27027344 93.7421875 1.1953125 C93.7421875 0.8653125 93.7421875 0.5353125 93.7421875 0.1953125 C98.3621875 0.1953125 102.9821875 0.1953125 107.7421875 0.1953125 C121.05623785 24.00429562 121.05623785 24.00429562 118.7421875 33.1953125 C116.40876635 33.22323908 114.0757031 33.24257499 111.7421875 33.2578125 C109.793125 33.27521484 109.793125 33.27521484 107.8046875 33.29296875 C103.79922768 33.26629347 99.83791763 32.99426345 95.84375 32.69921875 C83.95179553 31.87612545 72.03091551 32.04542407 60.1171875 32.0703125 C58.28785675 32.07164185 58.28785675 32.07164185 56.42156982 32.07299805 C40.13569372 32.08690411 23.88881576 32.29649919 7.6171875 32.97265625 C-0.00949452 33.28796168 -7.62597487 33.2960259 -15.2578125 33.1953125 C-16.07062313 23.6041471 -12.62412979 15.6218968 -8.2578125 7.1953125 C-7.5978125 7.1953125 -6.9378125 7.1953125 -6.2578125 7.1953125 C-6.1340625 6.4115625 -6.0103125 5.6278125 -5.8828125 4.8203125 C-4.93823492 0.85308666 -4.07751017 0.24445505 0 0 Z " fill="#504F4E" transform="translate(28.2578125,8.8046875)"/>
<path d="M0 0 C1.85602884 2.35079691 3.17226988 4.88503152 4.5 7.5625 C4.87801758 8.30830322 5.25603516 9.05410645 5.64550781 9.82250977 C8.31139358 15.24416166 10.68139084 20.76148239 12.75 26.4375 C13.16475586 27.49916382 13.16475586 27.49916382 13.58789062 28.58227539 C15.64209286 34.67060824 14.29013844 39.1248673 12 45 C6.7530145 45.02488901 1.50606408 45.04294884 -3.7409668 45.05493164 C-5.52254842 45.05993201 -7.30412599 45.06673446 -9.08569336 45.07543945 C-11.6600037 45.08769464 -14.23425936 45.09327142 -16.80859375 45.09765625 C-17.59334579 45.10281754 -18.37809784 45.10797882 -19.18663025 45.11329651 C-24.52956863 45.11382743 -29.69793151 44.66708655 -35 44 C-35 43.34 -35 42.68 -35 42 C-19.98750714 41.78722451 -4.99877175 42.42827066 10 43 C10 40.69 10 38.38 10 36 C5.71 36 1.42 36 -3 36 C-3 35.67 -3 35.34 -3 35 C3.435 34.505 3.435 34.505 10 34 C8.30047419 23.80284515 5.56999604 15.6094548 0.42578125 6.65234375 C-1 4 -1 4 -1 2 C-12.88 1.67 -24.76 1.34 -37 1 C-37 0.34 -37 -0.32 -37 -1 C-37.99 -1.33 -38.98 -1.66 -40 -2 C-33.40991081 -8.59008919 -7.15203839 -4.64882496 0 0 Z " fill="#EAE9E8" transform="translate(137,7)"/>
<path d="M0 0 C41.25 0 82.5 0 125 0 C125.495 1.485 125.495 1.485 126 3 C84.09 3 42.18 3 -1 3 C-0.67 2.01 -0.34 1.02 0 0 Z " fill="#525151" transform="translate(19,90)"/>
<path d="M0 0 C5.94 0 11.88 0 18 0 C18.91043157 4.55215787 18.93992878 8.27194744 18.5625 12.8125 C18.376875 15.184375 18.19125 17.55625 18 20 C12.06 20 6.12 20 0 20 C0 13.4 0 6.8 0 0 Z " fill="#FBFBFB" transform="translate(134,106)"/>
<path d="M0 0 C5.61 0 11.22 0 17 0 C17 6.6 17 13.2 17 20 C11.39 20 5.78 20 0 20 C0 13.4 0 6.8 0 0 Z " fill="#FDFDFD" transform="translate(8,106)"/>
<path d="M0 0 C0.77915771 0.00202423 1.55831543 0.00404846 2.36108398 0.00613403 C3.15635498 0.00517731 3.95162598 0.00422058 4.77099609 0.00323486 C6.45564859 0.0025531 8.1403037 0.00440711 9.82495117 0.00857544 C12.41257595 0.01392378 15.00002714 0.00863034 17.58764648 0.00222778 C19.22045937 0.00288857 20.85327215 0.00416973 22.48608398 0.00613403 C23.2652417 0.0041098 24.04439941 0.00208557 24.84716797 0 C30.30863294 0.02399549 30.30863294 0.02399549 31.42358398 1.13894653 C31.4967802 3.83549507 31.51600936 6.50586111 31.48608398 9.20144653 C31.48157227 9.96005981 31.47706055 10.7186731 31.47241211 11.50027466 C31.46059078 13.37986525 31.44265476 15.25941552 31.42358398 17.13894653 C38.35358398 17.63394653 38.35358398 17.63394653 45.42358398 18.13894653 C45.42358398 18.46894653 45.42358398 18.79894653 45.42358398 19.13894653 C21.00358398 19.13894653 -3.41641602 19.13894653 -28.57641602 19.13894653 C-28.57641602 18.80894653 -28.57641602 18.47894653 -28.57641602 18.13894653 C-21.31641602 18.13894653 -14.05641602 18.13894653 -6.57641602 18.13894653 C-6.61599083 12.58921532 -6.61599083 12.58921532 -6.66650391 7.0395813 C-6.67364692 5.07248679 -6.62673495 3.10541032 -6.57641602 1.13894653 C-4.78811153 -0.64935795 -2.3806045 0.01045942 0 0 Z M-4.57641602 2.13894653 C-4.57641602 6.42894653 -4.57641602 10.71894653 -4.57641602 15.13894653 C6.64358398 15.13894653 17.86358398 15.13894653 29.42358398 15.13894653 C29.42358398 10.84894653 29.42358398 6.55894653 29.42358398 2.13894653 C27.51913072 0.23449327 24.14020861 1.00835792 21.61499023 1.00613403 C20.93307114 1.00517731 20.25115204 1.00422058 19.54856873 1.00323486 C18.10350452 1.00255315 16.65843726 1.00440685 15.21337891 1.00857544 C12.99887206 1.01391569 10.78456879 1.00863448 8.57006836 1.00222778 C7.1683752 1.00288873 5.76668217 1.00417023 4.36499023 1.00613403 C3.08309814 1.00726196 1.80120605 1.00838989 0.48046875 1.009552 C-2.49265906 0.9266567 -2.49265906 0.9266567 -4.57641602 2.13894653 Z " fill="#221F1D" transform="translate(67.576416015625,59.861053466796875)"/>
<path d="M0 0 C1.25159912 0.00523682 2.50319824 0.01047363 3.79272461 0.01586914 C4.78942421 0.01799156 4.78942421 0.01799156 5.80625916 0.02015686 C7.93590735 0.02577021 10.06545175 0.03832485 12.19506836 0.05102539 C13.63582205 0.05603868 15.07657739 0.06060188 16.51733398 0.06469727 C20.05577938 0.07574394 23.59416375 0.09301747 27.13256836 0.11352539 C28.24234737 3.44286241 28.26558373 5.98580847 28.25756836 9.48852539 C28.26143555 11.17075195 28.26143555 11.17075195 28.26538086 12.88696289 C28.14691571 15.76496928 27.7327564 18.30807842 27.13256836 21.11352539 C21.40747382 21.13853084 15.68241214 21.15652767 9.95727539 21.16845703 C8.0158635 21.17343831 6.07445526 21.18022575 4.13305664 21.18896484 C-6.91906442 21.23741406 -17.85415272 21.1534209 -28.86743164 20.11352539 C-28.86743164 19.78352539 -28.86743164 19.45352539 -28.86743164 19.11352539 C-20.61743164 19.11352539 -12.36743164 19.11352539 -3.86743164 19.11352539 C-3.90700933 13.23469536 -3.90700933 13.23469536 -3.95751953 7.35595703 C-3.96001709 6.62755615 -3.96251465 5.89915527 -3.96508789 5.14868164 C-3.97294312 4.02538452 -3.97294312 4.02538452 -3.98095703 2.87939453 C-3.78576794 -0.15674032 -3.06510557 0.12135156 0 0 Z M-1.86743164 2.11352539 C-1.86743164 7.72352539 -1.86743164 13.33352539 -1.86743164 19.11352539 C7.04256836 19.11352539 15.95256836 19.11352539 25.13256836 19.11352539 C25.96485938 15.78436132 26.26771238 13.41376684 26.25756836 10.05102539 C26.26014648 9.19379883 26.26272461 8.33657227 26.26538086 7.45336914 C26.22621971 4.95788338 26.22621971 4.95788338 25.13256836 2.11352539 C16.22256836 2.11352539 7.31256836 2.11352539 -1.86743164 2.11352539 Z " fill="#2E2D2B" transform="translate(127.867431640625,57.886474609375)"/>
<path d="M0 0 C0.33 0 0.66 0 1 0 C1.33 7.26 1.66 14.52 2 22 C2.99 22 3.98 22 5 22 C5 15.73 5 9.46 5 3 C15.23 3 25.46 3 36 3 C36 9.27 36 15.54 36 22 C44.25 22 52.5 22 61 22 C61 22.33 61 22.66 61 23 C41.53 23.66 22.06 24.32 2 25 C1.67 27.31 1.34 29.62 1 32 C0.67 32 0.34 32 0 32 C0 21.44 0 10.88 0 0 Z M8 4 C4.9893229 11.52669275 5.49026863 15.47080588 8 23 C16.58 22.67 25.16 22.34 34 22 C34 16.06 34 10.12 34 4 C25.42 4 16.84 4 8 4 Z " fill="#343332" transform="translate(0,55)"/>
<path d="M0 0 C10.60507633 -0.06952305 21.21009841 -0.12282304 31.81535625 -0.15543652 C36.73986043 -0.17108968 41.66420863 -0.19232168 46.58862305 -0.22631836 C51.34132736 -0.25892412 56.09388169 -0.27685564 60.84668922 -0.28463173 C62.65957818 -0.29017304 64.47245897 -0.30099388 66.28528404 -0.31719017 C68.82537932 -0.3389807 71.36485553 -0.34196626 73.9050293 -0.34057617 C74.65381348 -0.351362 75.40259766 -0.36214783 76.17407227 -0.3732605 C80.64576856 -0.34679617 83.42373624 0.28955253 87 3 C95.96891464 12.14477571 99.74623097 24.89115691 103.1328125 36.953125 C103.86589849 39.88620307 103.86589849 39.88620307 105 42 C104.01 42 103.02 42 102 42 C101.65388672 41.03513672 101.65388672 41.03513672 101.30078125 40.05078125 C100.21058531 37.03011978 99.10499941 34.01527616 98 31 C97.62617188 29.95457031 97.25234375 28.90914062 96.8671875 27.83203125 C92.51722755 14.05789743 92.51722755 14.05789743 83.68403625 3.87644958 C74.26533345 0.80085098 63.43280635 1.79430485 53.61328125 1.68359375 C52.0595806 1.66297368 50.50588493 1.64197608 48.95219421 1.62062073 C44.89995395 1.56592092 40.84766755 1.51628619 36.79534912 1.46777344 C32.64542629 1.41717333 28.4955689 1.36169011 24.34570312 1.30664062 C16.23052439 1.19969812 8.11529023 1.09811646 0 1 C0 0.67 0 0.34 0 0 Z " fill="#555453" transform="translate(50,2)"/>
<path d="M0 0 C0.87078186 -0.00412399 1.74156372 -0.00824799 2.63873291 -0.01249695 C4.06724327 0.00368179 4.06724327 0.00368179 5.52461243 0.02018738 C7.0321962 0.01953026 7.0321962 0.01953026 8.57023621 0.01885986 C11.89807952 0.0209528 15.22542139 0.04430805 18.55317688 0.0677948 C20.85817184 0.07338895 23.16317037 0.0776599 25.46817017 0.08065796 C31.53949301 0.09212094 37.61060109 0.12160081 43.68183899 0.1547699 C49.87525019 0.18543937 56.06869603 0.19915662 62.26216125 0.21427917 C74.41785466 0.24646896 86.57338854 0.297683 98.72895813 0.36076355 C98.39895813 1.02076355 98.06895813 1.68076355 97.72895813 2.36076355 C96.73798126 2.35854294 95.74700439 2.35632233 94.72599792 2.35403442 C85.28508864 2.33356637 75.84418399 2.31867929 66.40325737 2.30895138 C61.5521793 2.30378172 56.70111946 2.29679478 51.85005188 2.2853241 C22.27373959 2.15515703 22.27373959 2.15515703 -7.27104187 3.36076355 C-4.944706 0.57334805 -3.6088847 -0.01318715 0 0 Z " fill="#D2D1CF" transform="translate(33.27104187011719,-0.3607635498046875)"/>
<path d="M0 0 C0.66 0 1.32 0 2 0 C2.33 2.31 2.66 4.62 3 7 C37.155 6.505 37.155 6.505 72 6 C71.67 6.66 71.34 7.32 71 8 C47.67720176 9.3126399 24.35009235 9.09923217 1 9 C-0.4783226 6.04335481 -0.06032783 3.25770263 0 0 Z " fill="#505050" transform="translate(10,43)"/>
<path d="M0 0 C1.27617187 0.02320313 2.55234375 0.04640625 3.8671875 0.0703125 C5.78917969 0.09738281 5.78917969 0.09738281 7.75 0.125 C9.23113281 0.15980469 9.23113281 0.15980469 10.7421875 0.1953125 C10.7421875 0.5253125 10.7421875 0.8553125 10.7421875 1.1953125 C9.85015625 1.25847656 8.958125 1.32164063 8.0390625 1.38671875 C1.62873166 1.80547059 1.62873166 1.80547059 -3.90625 4.60546875 C-4.95261931 6.44289327 -5.62981129 8.17701929 -6.2578125 10.1953125 C-6.77724626 11.55001663 -7.29808663 12.90418225 -7.8203125 14.2578125 C-8.17609375 15.26328125 -8.17609375 15.26328125 -8.5390625 16.2890625 C-9.2578125 18.1953125 -9.2578125 18.1953125 -10.8203125 21.2578125 C-12.64140479 24.76107558 -12.64140479 24.76107558 -14.2578125 31.1953125 C-8.9778125 31.1953125 -3.6978125 31.1953125 1.7421875 31.1953125 C1.7421875 31.8553125 1.7421875 32.5153125 1.7421875 33.1953125 C-3.8678125 33.1953125 -9.4778125 33.1953125 -15.2578125 33.1953125 C-16.07062313 23.6041471 -12.62412979 15.6218968 -8.2578125 7.1953125 C-7.5978125 7.1953125 -6.9378125 7.1953125 -6.2578125 7.1953125 C-6.1340625 6.4115625 -6.0103125 5.6278125 -5.8828125 4.8203125 C-4.93823492 0.85308666 -4.07751017 0.24445505 0 0 Z " fill="#3E3E3C" transform="translate(28.2578125,8.8046875)"/>
<path d="M0 0 C0.66 0 1.32 0 2 0 C2.125 6.75 2.125 6.75 1 9 C-4.2469855 9.02488901 -9.49393592 9.04294884 -14.7409668 9.05493164 C-16.52254842 9.05993201 -18.30412599 9.06673446 -20.08569336 9.07543945 C-22.6600037 9.08769464 -25.23425936 9.09327142 -27.80859375 9.09765625 C-28.59334579 9.10281754 -29.37809784 9.10797882 -30.18663025 9.11329651 C-35.52956863 9.11382743 -40.69793151 8.66708655 -46 8 C-46 7.34 -46 6.68 -46 6 C-30.98750714 5.78722451 -15.99877175 6.42827066 -1 7 C-0.67 4.69 -0.34 2.38 0 0 Z " fill="#3D3D3C" transform="translate(148,43)"/>
<path d="M0 0 C0.33 0 0.66 0 1 0 C1 3.63 1 7.26 1 11 C2.12019531 10.96519531 3.24039063 10.93039063 4.39453125 10.89453125 C5.86717251 10.86639161 7.33982998 10.83909163 8.8125 10.8125 C9.91948242 10.77479492 9.91948242 10.77479492 11.04882812 10.73632812 C16.54974762 10.66165501 16.54974762 10.66165501 19.01171875 12.51171875 C19.50091797 13.24841797 19.50091797 13.24841797 20 14 C19 15 19 15 15.03100586 15.11352539 C13.25894393 15.1133662 11.4868774 15.10766785 9.71484375 15.09765625 C8.78402481 15.0962413 7.85320587 15.09482635 6.8941803 15.09336853 C3.90858809 15.08775172 0.92306971 15.0751964 -2.0625 15.0625 C-4.08137913 15.05748716 -6.10025943 15.05292388 -8.11914062 15.04882812 C-13.07945572 15.03777683 -18.03971532 15.02050095 -23 15 C-23 14.67 -23 14.34 -23 14 C-15.74 13.67 -8.48 13.34 -1 13 C-0.67 8.71 -0.34 4.42 0 0 Z " fill="#201E1C" transform="translate(62,64)"/>
<path d="M0 0 C3.17826322 3.68595078 5.42808788 7.47046102 7.4375 11.875 C7.73462891 12.52049805 8.03175781 13.16599609 8.33789062 13.83105469 C16.78909546 32.63271362 16.78909546 32.63271362 15 38 C14.67 37.34 14.34 36.68 14 36 C13.34 36 12.68 36 12 36 C12 37.65 12 39.3 12 41 C11.67 41 11.34 41 11 41 C11 39.35 11 37.7 11 36 C6.71 36 2.42 36 -2 36 C-2 35.67 -2 35.34 -2 35 C4.435 34.505 4.435 34.505 11 34 C9.2960049 23.77602938 6.70230688 15.83850634 1.42578125 6.84765625 C0 4 0 4 0 0 Z " fill="#D6D4D3" transform="translate(136,7)"/>
<path d="M0 0 C0.77915771 0.00202423 1.55831543 0.00404846 2.36108398 0.00613403 C3.15635498 0.00517731 3.95162598 0.00422058 4.77099609 0.00323486 C6.45564859 0.0025531 8.1403037 0.00440711 9.82495117 0.00857544 C12.41257595 0.01392378 15.00002714 0.00863034 17.58764648 0.00222778 C19.22045937 0.00288857 20.85327215 0.00416973 22.48608398 0.00613403 C23.2652417 0.0041098 24.04439941 0.00208557 24.84716797 0 C30.30863294 0.02399549 30.30863294 0.02399549 31.42358398 1.13894653 C31.4963014 3.49208208 31.50729266 5.84728322 31.48608398 8.20144653 C31.47706055 9.4917981 31.46803711 10.78214966 31.45874023 12.11160278 C31.44713867 13.11062622 31.43553711 14.10964966 31.42358398 15.13894653 C29.42358398 13.13894653 29.42358398 13.13894653 28.42358398 2.13894653 C17.53358398 2.13894653 6.64358398 2.13894653 -4.57641602 2.13894653 C-4.90641602 7.08894653 -5.23641602 12.03894653 -5.57641602 17.13894653 C-5.90641602 17.13894653 -6.23641602 17.13894653 -6.57641602 17.13894653 C-6.6032628 14.49304639 -6.62317958 11.84741558 -6.63891602 9.20144653 C-6.64729492 8.44670044 -6.65567383 7.69195435 -6.66430664 6.91433716 C-6.67294042 4.9890034 -6.62865934 3.06359072 -6.57641602 1.13894653 C-4.78811153 -0.64935795 -2.3806045 0.01045942 0 0 Z " fill="#242322" transform="translate(67.576416015625,59.861053466796875)"/>
<path d="M0 0 C1.32 0.33 2.64 0.66 4 1 C3.67 7.6 3.34 14.2 3 21 C-0.3282731 22.66413655 -3.99733973 21.81867406 -7.625 21.5625 C-8.42679688 21.51029297 -9.22859375 21.45808594 -10.0546875 21.40429688 C-12.03679103 21.27451629 -14.01844499 21.13790265 -16 21 C-16 20.67 -16 20.34 -16 20 C-10.72 20 -5.44 20 0 20 C0 13.4 0 6.8 0 0 Z " fill="#686868" transform="translate(25,106)"/>
<path d="M0 0 C18.81 0.495 18.81 0.495 38 1 C38 1.33 38 1.66 38 2 C29.81353269 3.15136362 21.68490646 3.11414983 13.4375 3.0625 C12.03320473 3.05747366 10.6289077 3.05291276 9.22460938 3.04882812 C5.81636097 3.03711593 2.4082036 3.02071372 -1 3 C-0.67 2.01 -0.34 1.02 0 0 Z " fill="#959394" transform="translate(93,7)"/>
<path d="M0 0 C0.33 0 0.66 0 1 0 C1.33 7.26 1.66 14.52 2 22 C2.99 22 3.98 22 5 22 C5 17.71 5 13.42 5 9 C5.33 9 5.66 9 6 9 C6.09796875 9.91523437 6.1959375 10.83046875 6.296875 11.7734375 C6.44640625 12.96195313 6.5959375 14.15046875 6.75 15.375 C6.88921875 16.55835937 7.0284375 17.74171875 7.171875 18.9609375 C7.44515625 19.96382812 7.7184375 20.96671875 8 22 C9.32 22.66 10.64 23.32 12 24 C7.05 24.495 7.05 24.495 2 25 C1.67 27.31 1.34 29.62 1 32 C0.67 32 0.34 32 0 32 C0 21.44 0 10.88 0 0 Z " fill="#302D2A" transform="translate(0,55)"/>
<path d="M0 0 C1.12050151 3.36150452 1.13296652 5.96286726 1.125 9.5 C1.12886719 11.21703125 1.12886719 11.21703125 1.1328125 12.96875 C1 16 1 16 0 19 C-0.66 19 -1.32 19 -2 19 C-2 13.39 -2 7.78 -2 2 C-10.91 2 -19.82 2 -29 2 C-29 1.67 -29 1.34 -29 1 C-24.54168888 0.83273548 -20.08334759 0.66628917 -15.625 0.5 C-14.35398438 0.45230469 -13.08296875 0.40460937 -11.7734375 0.35546875 C-9.95585937 0.28779297 -9.95585937 0.28779297 -8.1015625 0.21875 C-6.42054443 0.1559082 -6.42054443 0.1559082 -4.70556641 0.09179688 C-3.13764805 0.03859914 -1.56882057 0 0 0 Z " fill="#5E5D5C" transform="translate(155,58)"/>
<path d="M0 0 C2.72977064 -0.08126109 5.4571017 -0.14061663 8.1875 -0.1875 C9.34088867 -0.22520508 9.34088867 -0.22520508 10.51757812 -0.26367188 C15.2041595 -0.32401412 18.20816986 -0.05129188 22 3 C23.8359375 4.9375 23.8359375 4.9375 25.375 7 C25.89835937 7.680625 26.42171875 8.36125 26.9609375 9.0625 C27.30382812 9.701875 27.64671875 10.34125 28 11 C27.67 11.99 27.34 12.98 27 14 C23.17647059 9.41176471 23.17647059 9.41176471 22.0625 6.8125 C20.50622911 4.15768494 18.92039785 3.94642523 16 3 C13.24144901 2.50065887 10.47359102 2.17875613 7.6875 1.875 C6.57665039 1.74544922 6.57665039 1.74544922 5.44335938 1.61328125 C3.62961565 1.40265295 1.81489457 1.20047014 0 1 C0 0.67 0 0.34 0 0 Z " fill="#3A3838" transform="translate(115,2)"/>
<path d="M0 0 C0.83265381 0.00523682 1.66530762 0.01047363 2.52319336 0.01586914 C3.42231445 0.0190918 4.32143555 0.02231445 5.24780273 0.02563477 C6.66609375 0.03820312 6.66609375 0.03820312 8.11303711 0.05102539 C9.06243164 0.05553711 10.01182617 0.06004883 10.98999023 0.06469727 C13.34356776 0.07652429 15.69702188 0.09300514 18.05053711 0.11352539 C18.05053711 1.10352539 18.05053711 2.09352539 18.05053711 3.11352539 C15.11279248 3.16742896 12.17603479 3.20715089 9.23803711 3.23852539 C8.4046582 3.2552832 7.5712793 3.27204102 6.71264648 3.28930664 C5.91020508 3.29575195 5.10776367 3.30219727 4.28100586 3.30883789 C3.17341919 3.32454834 3.17341919 3.32454834 2.04345703 3.34057617 C0.05053711 3.11352539 0.05053711 3.11352539 -2.94946289 1.11352539 C-1.94946289 0.11352539 -1.94946289 0.11352539 0 0 Z " fill="#FEFDFB" transform="translate(99.949462890625,3.886474609375)"/>
<path d="M0 0 C0.33 0 0.66 0 1 0 C1 4.95 1 9.9 1 15 C-1.35658397 16.17829199 -2.52573236 16.04414372 -5.1328125 15.87890625 C-5.93847656 15.83056641 -6.74414062 15.78222656 -7.57421875 15.73242188 C-8.41597656 15.67634766 -9.25773438 15.62027344 -10.125 15.5625 C-11.39923828 15.48418945 -11.39923828 15.48418945 -12.69921875 15.40429688 C-14.79979124 15.27448622 -16.89994191 15.1378826 -19 15 C-19 14.67 -19 14.34 -19 14 C-13.39 14 -7.78 14 -2 14 C-2.04125 12.4325 -2.0825 10.865 -2.125 9.25 C-2.22266247 5.53882603 -1.90608098 3.21182149 0 0 Z " fill="#5C5C5C" transform="translate(154,112)"/>
<path d="M0 0 C0.66 0 1.32 0 2 0 C2.125 6.75 2.125 6.75 1 9 C-5.6 9 -12.2 9 -19 9 C-19 8.34 -19 7.68 -19 7 C-13.06 7 -7.12 7 -1 7 C-0.67 4.69 -0.34 2.38 0 0 Z " fill="#5F5E5F" transform="translate(148,43)"/>
<path d="M0 0 C0.5775 0.2475 1.155 0.495 1.75 0.75 C1.13640625 0.99492188 0.5228125 1.23984375 -0.109375 1.4921875 C-2.67635567 3.00052285 -3.28857904 4.19256788 -4.5 6.875 C-4.83515625 7.59945313 -5.1703125 8.32390625 -5.515625 9.0703125 C-5.75796875 9.62460938 -6.0003125 10.17890625 -6.25 10.75 C-6.91 10.75 -7.57 10.75 -8.25 10.75 C-8.38277344 11.31203125 -8.51554687 11.8740625 -8.65234375 12.453125 C-9.27437111 14.84366153 -10.02115041 17.16035775 -10.8125 19.5 C-11.08191406 20.29921875 -11.35132813 21.0984375 -11.62890625 21.921875 C-11.83386719 22.52515625 -12.03882813 23.1284375 -12.25 23.75 C-13.4765625 22.25 -13.4765625 22.25 -14.25 19.75 C-13.40946332 16.89879866 -12.02220342 14.36442809 -10.625 11.75 C-10.26792969 11.0384375 -9.91085938 10.326875 -9.54296875 9.59375 C-4.3360248 -0.48178053 -4.3360248 -0.48178053 0 0 Z " fill="#D3D2D0" transform="translate(28.25,5.25)"/>
<path d="M0 0 C0.66 0 1.32 0 2 0 C2.99 3.3 3.98 6.6 5 10 C4.01 10.495 4.01 10.495 3 11 C3 10.34 3 9.68 3 9 C2.34 9 1.68 9 1 9 C1 10.65 1 12.3 1 14 C0.67 14 0.34 14 0 14 C0 12.35 0 10.7 0 9 C-4.29 9 -8.58 9 -13 9 C-13 8.67 -13 8.34 -13 8 C-6.565 7.505 -6.565 7.505 0 7 C0 4.69 0 2.38 0 0 Z " fill="#E4E3E1" transform="translate(147,34)"/>
<path d="M0 0 C1.23327026 0.02356567 1.23327026 0.02356567 2.49145508 0.04760742 C3.38413086 0.05727539 4.27680664 0.06694336 5.1965332 0.0769043 C6.5896875 0.11460938 6.5896875 0.11460938 8.01098633 0.15307617 C8.95135742 0.16661133 9.89172852 0.18014648 10.8605957 0.1940918 C13.18213671 0.22944521 15.50252286 0.27878943 17.82348633 0.34057617 C17.49348633 1.00057617 17.16348633 1.66057617 16.82348633 2.34057617 C5.93348633 2.83557617 5.93348633 2.83557617 -5.17651367 3.34057617 C-2.17651367 0.34057617 -2.17651367 0.34057617 0 0 Z " fill="#E4E3E1" transform="translate(31.176513671875,-0.340576171875)"/>
<path d="M0 0 C0.66 0 1.32 0 2 0 C2.33 2.31 2.66 4.62 3 7 C6.96 7 10.92 7 15 7 C15 7.66 15 8.32 15 9 C10.38 9 5.76 9 1 9 C-0.4783226 6.04335481 -0.06032783 3.25770263 0 0 Z " fill="#585858" transform="translate(10,43)"/>
<path d="M0 0 C1.27617187 0.02320313 2.55234375 0.04640625 3.8671875 0.0703125 C5.78917969 0.09738281 5.78917969 0.09738281 7.75 0.125 C9.23113281 0.15980469 9.23113281 0.15980469 10.7421875 0.1953125 C10.7421875 0.5253125 10.7421875 0.8553125 10.7421875 1.1953125 C9.85015625 1.25847656 8.958125 1.32164063 8.0390625 1.38671875 C1.55446291 1.78878243 1.55446291 1.78878243 -3.94140625 4.74609375 C-5.1369626 6.8069423 -5.1369626 6.8069423 -6.2578125 10.1953125 C-6.6703125 10.9996875 -7.0828125 11.8040625 -7.5078125 12.6328125 C-7.7553125 13.1484375 -8.0028125 13.6640625 -8.2578125 14.1953125 C-9.19204895 11.18499506 -9.30231161 10.32880982 -8.2578125 7.1953125 C-7.5978125 7.1953125 -6.9378125 7.1953125 -6.2578125 7.1953125 C-6.1340625 6.4115625 -6.0103125 5.6278125 -5.8828125 4.8203125 C-4.93823492 0.85308666 -4.07751017 0.24445505 0 0 Z " fill="#555453" transform="translate(28.2578125,8.8046875)"/>
<path d="M0 0 C0.66 0 1.32 0 2 0 C2.02705729 1.77074917 2.04642195 3.54161711 2.0625 5.3125 C2.07410156 6.29863281 2.08570313 7.28476563 2.09765625 8.30078125 C2 11 2 11 1 14 C0.34 14 -0.32 14 -1 14 C-1 11.36 -1 8.72 -1 6 C-1.99 6 -2.98 6 -4 6 C-3.67 5.01 -3.34 4.02 -3 3 C-2.34 3 -1.68 3 -1 3 C-0.67 2.01 -0.34 1.02 0 0 Z " fill="#3D3D3B" transform="translate(153,100)"/>
<path d="M0 0 C0.33 0.99 0.66 1.98 1 3 C-0.30368347 4.68996005 -1.64444707 6.35135455 -3 8 C-4.44399479 10.6157212 -5.73708895 13.29280238 -7 16 C-7.66 16 -8.32 16 -9 16 C-8.41774247 12.34471662 -7.43242431 9.53847854 -5.625 6.3125 C-5.20476563 5.54550781 -4.78453125 4.77851562 -4.3515625 3.98828125 C-3 2 -3 2 0 0 Z " fill="#464543" transform="translate(25,3)"/>
<path d="M0 0 C0.66 0.99 1.32 1.98 2 3 C1.36513364 4.67070095 0.71045401 6.33774767 -0.0625 7.94921875 C-1.69308905 11.5161323 -2.80696063 15.26857899 -4 19 C-4.66 18.01 -5.32 17.02 -6 16 C-5.375 13.4375 -5.375 13.4375 -4 10 C-3.6596875 9.13761719 -3.319375 8.27523438 -2.96875 7.38671875 C-1.99154023 4.91926408 -1.00069054 2.45800685 0 0 Z " fill="#565554" transform="translate(15,17)"/>
<path d="M0 0 C0.33 0 0.66 0 1 0 C1.61364554 7.24101736 1.61364554 7.24101736 -1.375 10.9375 C-4 13 -4 13 -6 14 C-2.99633316 4.22210581 -2.99633316 4.22210581 0 0 Z " fill="#F0EFEE" transform="translate(161,88)"/>
<path d="M0 0 C0.66 0 1.32 0 2 0 C1.49775354 5.02246462 0.32134845 8.55074881 -2 13 C-2.69907414 15.73572585 -2.69907414 15.73572585 -3 18 C-3.66 17.67 -4.32 17.34 -5 17 C-4.46246904 10.81839396 -2.45417612 5.673142 0 0 Z " fill="#494847" transform="translate(18,20)"/>
<path d="M0 0 C1.93166016 0.01740234 1.93166016 0.01740234 3.90234375 0.03515625 C5.19269531 0.04417969 6.48304687 0.05320313 7.8125 0.0625 C8.81152344 0.07410156 9.81054688 0.08570313 10.83984375 0.09765625 C10.83984375 0.42765625 10.83984375 0.75765625 10.83984375 1.09765625 C4.40484375 1.59265625 4.40484375 1.59265625 -2.16015625 2.09765625 C-2.49015625 7.04765625 -2.82015625 11.99765625 -3.16015625 17.09765625 C-3.49015625 17.09765625 -3.82015625 17.09765625 -4.16015625 17.09765625 C-4.18700304 14.45175611 -4.20691982 11.80612529 -4.22265625 9.16015625 C-4.23103516 8.40541016 -4.23941406 7.65066406 -4.24804688 6.87304688 C-4.25668066 4.94771312 -4.21239958 3.02230044 -4.16015625 1.09765625 C-3.16015625 0.09765625 -3.16015625 0.09765625 0 0 Z " fill="#393838" transform="translate(65.16015625,59.90234375)"/>
<path d="M0 0 C0.33 0 0.66 0 1 0 C1.09796875 0.91523437 1.1959375 1.83046875 1.296875 2.7734375 C1.44640625 3.96195312 1.5959375 5.15046875 1.75 6.375 C1.88921875 7.55835937 2.0284375 8.74171875 2.171875 9.9609375 C2.44515625 10.96382812 2.7184375 11.96671875 3 13 C4.32 13.66 5.64 14.32 7 15 C3.7 15 0.4 15 -3 15 C-2.01 14.67 -1.02 14.34 0 14 C0 9.38 0 4.76 0 0 Z " fill="#1C1A1B" transform="translate(5,64)"/>
<path d="M0 0 C0.66 0 1.32 0 2 0 C1.34 4.62 0.68 9.24 0 14 C-0.99 14 -1.98 14 -3 14 C-2.40380045 9.13103697 -1.43023178 4.67209049 0 0 Z " fill="#EAEAE9" transform="translate(13,27)"/>
<path d="M0 0 C0.99 0.33 1.98 0.66 3 1 C3.94921875 3.28515625 3.94921875 3.28515625 4.6875 6.0625 C4.93886719 6.98160156 5.19023437 7.90070312 5.44921875 8.84765625 C5.63097656 9.55792969 5.81273437 10.26820312 6 11 C5.01 11.495 5.01 11.495 4 12 C3.32645501 10.56570999 2.66140299 9.12742943 2 7.6875 C1.62875 6.88699219 1.2575 6.08648437 0.875 5.26171875 C0 3 0 3 0 0 Z " fill="#4E4D4C" transform="translate(142,15)"/>
<path d="M0 0 C2.73789749 1.00389575 3.82231282 1.6953934 5.3125 4.25 C6.12420931 7.49683722 5.75200013 9.76639943 5 13 C4.67 13 4.34 13 4 13 C3.896875 11.96875 3.79375 10.9375 3.6875 9.875 C3.00872203 6.04916055 1.88841205 3.36629975 0 0 Z " fill="#525152" transform="translate(153,44)"/>
<path d="M0 0 C0.66 0 1.32 0 2 0 C2.33 2.31 2.66 4.62 3 7 C3.99 7.33 4.98 7.66 6 8 C4.33388095 8.042721 2.66617115 8.04063832 1 8 C0 7 0 7 -0.0625 3.4375 C-0.041875 2.303125 -0.02125 1.16875 0 0 Z " fill="#3C3C3C" transform="translate(10,43)"/>
<path d="M0 0 C0.598125 0.350625 1.19625 0.70125 1.8125 1.0625 C1.4825 1.7225 1.1525 2.3825 0.8125 3.0625 C-1.1675 3.0625 -3.1475 3.0625 -5.1875 3.0625 C-5.1875 2.0725 -5.1875 1.0825 -5.1875 0.0625 C-2.1875 -0.9375 -2.1875 -0.9375 0 0 Z " fill="#282725" transform="translate(80.1875,75.9375)"/>
<path d="M0 0 C0.66 0 1.32 0 2 0 C2 2.31 2 4.62 2 7 C0.68 7.33 -0.64 7.66 -2 8 C-1.34 5.36 -0.68 2.72 0 0 Z " fill="#2E2D2C" transform="translate(148,43)"/>
</svg>
